<svg id="Layer_1" data-name="Layer 1" xmlns="http://www.w3.org/2000/svg" viewBox="0 0 2000 1992.37"><defs><style>.cls-1{fill:#fff;fill-rule:evenodd;}.cls-2{fill:#5f5f5f;}.cls-3{fill:#787878;}.cls-4{fill:#2f2f2f;}</style></defs><path id="WHITE" class="cls-1" d="M1081.44,106.39C1011.6,155.66,957,200.9,871.4,211.45s-202.09-13.61-276.53-12.78S488.08,225.3,449.62,282.24s-83.06,145-155.07,210.49S123.13,601.12,65.17,645.32-9.31,735,4.7,802.56s58.52,157.22,78.5,237.31,15.42,150.63,23.61,241.33,29.14,201.59,67.78,284.24,95,137.09,176.46,160.52,188.17,15.84,331.32,42.87,322.81,88.67,456,142.67,220,100.4,309.9,72.5,183-130.09,263-234.93,146.83-212.34,159.51-326.23-28.81-234.16-9-348.39S1962.53,852,1989.26,756.52s-.83-178.36-34.66-265.74-74-179.33-141.16-247.09-161.43-111.36-248-156.2S1400.19-3.41,1318.27.2,1151.28,57.11,1081.44,106.39Z"/><g id="GRAY"><path class="cls-2" d="M1954.6,490.78c-20.1-51.9-42.44-105.37-71.31-154.45l-.55,1.15c-8.34,17.14-22,27.32-39,22.91-5.6-1.45-11.57-4.49-18.2-9.18h0c-.08-.06-.16-.13-.24-.18-.73-.52-1.46-1.05-2.2-1.61l-.16-.11c-.82-.62-1.65-1.26-2.49-1.93l-.37-.3c-.71-.56-1.43-1.14-2.15-1.73l-.55-.46c-.8-.67-1.61-1.35-2.43-2.06l-.12-.11c-.89-.76-1.79-1.56-2.69-2.37l-.49-.44-2.25-2.05-.65-.61c-.86-.79-1.72-1.61-2.6-2.45a1.29,1.29,0,0,1-.17-.16c-1-.9-1.91-1.83-2.88-2.78l-.69-.68c-.75-.74-1.51-1.49-2.27-2.26l-.84-.83-2.7-2.74c-.1-.1-.2-.21-.31-.31q-1.5-1.53-3-3.14l-1-1-2.25-2.36c-.35-.37-.71-.74-1.06-1.12l-2.79-3-.54-.58-3.2-3.46-1.17-1.27c-.79-.87-1.6-1.74-2.4-2.63l-1.17-1.28-3.53-3.89-2.72-3-.91-1-2-2.18-1-1.1c-.72-.81-1.45-1.62-2.17-2.44l-.72-.81q-1.35-1.51-2.7-3.06l-1.26-1.43-1.61-1.83c-.47-.54-1-1.08-1.42-1.63l-1.44-1.64-3.2-3.68-.83-1-1.83-2.12-1-1.17-1.93-2.25-.76-.88q-3.45-4-6.9-8.12l-.3-.36-2.31-2.74c-.12-.13-.23-.27-.34-.4-3.27-3.9-6.52-7.81-9.71-11.7l-.19-.24q-4.77-5.82-9.33-11.54l-.41-.51-2.12-2.66,0-.07q-2.2-2.77-4.33-5.51l-.2-.26-1.72-2.23-.84-1.08-1.56-2-1-1.26-2.15-2.85-1.39-1.86-1.08-1.45-1.32-1.8-1-1.3-.44-.61h0a248,248,0,0,1-15.24-23.14c-13.08-23.38-4.39-27.65,17-27.46-43.73-25.76-90.12-48.43-134.48-71.42C1479,42.66,1400.19-3.41,1318.27.2s-167,56.9-236.83,106.19c-12.89,9.09-25.25,18-37.39,26.66q9-6.36,18.11-12.94c15.89,9.55,20.77,26.11,18.38,45.05h0a100.2,100.2,0,0,1-4.68,19.56c-9.27,27.15-29.65,55.87-69.49,70.69s-99.12,15.75-147.91,5.72c-1.53-.32-3.05-.64-4.56-1-1-.22-2-.46-3-.7l-1.45-.33-2.95-.73L845,258l-2.77-.73-1.6-.42-2.61-.72-1.7-.48-2.41-.71-1.83-.53-2.26-.7-1.91-.59-2.14-.69-2-.64-2-.68-2-.67-2-.7c-.65-.23-1.3-.45-1.94-.69l-2-.73-1.83-.67-2.16-.81-1.58-.6-2.42-.95-1.23-.48-2.84-1.14-.69-.28q-3.84-1.57-7.49-3.16h0c-17.77-7.73-31.91-15.48-41.37-20.67-9.11-5-13.88-7.61-14.73-10.09l2,.18c-52.8-4.72-104.75-11.45-144.63-11-74.43.82-106.79,26.63-145.25,83.57-13,19.2-26.65,41.95-41.84,66.17h0c32-8.34,61.71-13.14,65.47,8.09,1.93,10.89-3,28.63-12,49.14h0c-.15.35-.32.71-.48,1.07-.27.63-.56,1.26-.84,1.89l-.86,1.88c-.29.62-.57,1.25-.87,1.88s-.61,1.29-.91,1.94l-.9,1.87c-.32.66-.64,1.33-1,2s-.61,1.23-.91,1.85l-1.05,2.09c-.3.6-.6,1.2-.91,1.8l-1.12,2.17c-.3.59-.61,1.18-.92,1.77s-.78,1.48-1.17,2.22l-.93,1.74c-.41.77-.83,1.54-1.25,2.31-.31.56-.61,1.12-.91,1.68L445,438.2l-.89,1.61c-.47.83-.94,1.66-1.42,2.49l-.87,1.53-1.5,2.59-.84,1.45-1.59,2.69-.81,1.35c-.56.94-1.13,1.88-1.7,2.82-.24.41-.49.82-.74,1.23l-1.81,3L432.1,460c-.65,1.06-1.32,2.12-2,3.17-.18.29-.35.58-.53.86q-1.27,2-2.57,4c-27.79,43.08-61.14,82-104.22,103.3-1.21.6-2.44,1.18-3.67,1.76l-1.16.53-2.64,1.18-1.25.55-3,1.25-.79.33c-1.25.5-2.51,1-3.76,1.47l-1.12.41-2.77,1-1.34.47c-.93.33-1.87.65-2.8,1l-1.11.36c-1.28.42-2.56.83-3.85,1.22l-.86.26-3.1.91-1.3.36-2.83.77-1.2.32c-1.32.34-2.64.67-4,1h0c-1.32.31-2.64.62-4,.91l-1.15.25-3,.63-1.18.24c-1.18.23-2.35.46-3.52.67l-.49.1-4.09.71-.85.13-3.25.51-1.08.16-3.36.47-.69.09-4.14.51-.32,0c-1.24.15-2.49.28-3.73.4l-.91.09q-1.67.17-3.33.3l-.76.07c-2.72.22-5.43.4-8.11.55l-.72,0-3.34.15-.79,0q-4,.15-7.95.18h-2.62a274.11,274.11,0,0,1-28.93-1.5,165.62,165.62,0,0,1-29.64-5.59c-35.11,20.63-68.05,39.56-93.19,58.73C7.2,689.51-9.31,735,4.7,802.56a453.31,453.31,0,0,0,13.63,49.09,46.52,46.52,0,0,1,21.22,4.29c9.08,4,18.82,11,28.32,19.87h0l.44.43c.78.73,1.55,1.48,2.33,2.24l.65.64q3,3,5.91,6.15l.57.63c.79.86,1.57,1.74,2.35,2.63l.67.76c.84,1,1.68,2,2.52,3l.3.37c1,1.16,1.92,2.33,2.86,3.52l.31.4c.8,1,1.6,2.05,2.39,3.09.23.29.45.59.68.89.69.94,1.39,1.87,2.07,2.82l.61.84q2.61,3.63,5.06,7.38l.63,1c.61.93,1.2,1.87,1.78,2.81.24.38.48.75.71,1.13.61,1,1.21,2,1.81,3l.48.81c.74,1.27,1.47,2.54,2.17,3.82l.48.87c.54,1,1.08,2,1.6,3l.66,1.27q.7,1.38,1.38,2.76l.59,1.18c.62,1.3,1.23,2.59,1.82,3.89s1.16,2.62,1.71,3.93c.17.41.34.81.5,1.21.39.95.78,1.89,1.15,2.84l.49,1.26c.42,1.12.83,2.23,1.23,3.34.07.21.15.41.22.62.47,1.32.91,2.63,1.34,4,.12.35.22.7.33,1,.32,1,.63,2,.93,3,.11.4.23.79.35,1.19q.47,1.62.9,3.24c.07.24.13.48.2.73.35,1.34.69,2.68,1,4,0,.21.09.42.14.62.26,1.14.52,2.27.76,3.4.06.32.13.64.2,1,.23,1.12.45,2.23.65,3.35,0,.21.09.42.12.63q.75,4.07,1.27,8.08l.09.65q.22,1.77.42,3.54c0,.15,0,.31.05.46q.42,4.07.66,8.06l0,.32c.07,1.23.12,2.46.17,3.68,0,.12,0,.24,0,.36a164.87,164.87,0,0,1-2.62,35.73c-5.08,27.16-16.48,46.34-32.77,41.51,0-.1,0-.2,0-.31,10.84,65.06,8.78,126.84,15.63,202.72,8.2,90.71,29.14,201.59,67.78,284.24s95,137.09,176.46,160.52,188.17,15.84,331.32,42.87c12.32,2.33,24.92,4.92,37.72,7.73.09-.75.2-1.49.35-2.23,3.53-17.67,25.38-32.68,57.22-36.46h0c1-.12,1.93-.22,2.91-.31l1.55-.14c.83-.07,1.67-.13,2.5-.18l1.84-.11,2.91-.11,1.5,0c1.19,0,2.4,0,3.61,0l1.23,0c1.07,0,2.16,0,3.25.08l1,0c1.35.05,2.71.14,4.08.23l1.08.08c1.42.11,2.86.24,4.31.39l.47,0c1.4.16,2.82.33,4.25.52l.73.1c1.51.21,3,.44,4.55.7l.85.14c1.57.27,3.15.56,4.75.88s3.38.71,5.08,1.1l1.6.39c1.18.28,2.37.57,3.56.88.64.16,1.27.34,1.91.51,1.1.29,2.21.59,3.31.91l2,.59c1.09.32,2.18.64,3.27,1l2.05.65c1.1.35,2.19.7,3.3,1.07l2,.69c1.13.38,2.26.78,3.4,1.18l1.93.7c1.2.44,2.41.89,3.61,1.35l1.73.65c1.36.53,2.71,1.06,4.06,1.61l1.29.51c3.64,1.48,7.29,3,10.92,4.66l.39.18c1.66.74,3.31,1.5,5,2.27l1.26.6c1.36.64,2.72,1.28,4.08,1.94l1.55.76,3.78,1.87,1.65.83c1.22.63,2.44,1.25,3.66,1.89l1.65.86c1.23.64,2.44,1.29,3.65,1.94l1.59.86,3.74,2.06,1.41.78c1.36.76,2.7,1.53,4,2.3l1,.59c5.12,3,10.13,6,15,9.05l.87.56,3.84,2.46,1.29.85,3.31,2.19,1.46,1,3,2.07,1.52,1c1,.67,1.92,1.34,2.86,2l1.53,1.08,2.74,2,1.47,1.07,2.72,2,1.34,1,2.83,2.18,1.07.83q1.9,1.5,3.74,3l.07.06c1.12.91,2.21,1.81,3.28,2.7h0c3.75,3.15,7.21,6.23,10.31,9.19,15.49,14.82,22.17,26.81,23.35,36.55,46.83,16.67,91.69,33.82,132.25,50.26,133.2,54,220,100.4,309.9,72.5s183-130.09,263-234.93,146.83-212.34,159.51-326.23-28.81-234.16-9-348.39c7.33-42.38,23.1-83.93,41.4-124.31l-.75.13c-19.74,2.87-31.87-13-35.37-39h0c-.19-1.42-.35-2.86-.49-4.33,0-.15,0-.3,0-.44-.13-1.44-.23-2.89-.32-4.38a1.48,1.48,0,0,0,0-.21c-.08-1.49-.13-3-.16-4.56,0-.18,0-.36,0-.54,0-1.54,0-3.1,0-4.68v-.21c0-1.6.08-3.24.16-4.89l0-.51c.08-1.68.19-3.37.32-5.09v-.07c.13-1.73.3-3.49.49-5.27l0-.46c.2-1.79.41-3.6.66-5.43,6.66-48.76,32.6-110.83,57.84-143.69.85-1.1,1.69-2.15,2.53-3.19l.5-.6c.69-.83,1.38-1.65,2.06-2.44l.12-.15h0c23.4-26.91,45.93-29.52,64-21.32,1.47.66,2.92,1.4,4.33,2.21C2004.8,628,1981.72,560.82,1954.6,490.78ZM1288.85,81.56c27.35-28.62,96.81-42.33,134.72-29.61,38.09,12.78,90.71,56.2,107.71,92.69,7,15,21,59.49,6,74.31-9.61,9.52-23.45,13.17-36.06,16.58,9.54-5.05,25.66-11.93,32.62-19.7,11.9-13.27-3.39-55.31-9.73-67.77-17-33.37-68.53-73.78-104.25-84.86-35.13-10.89-98.67-1.31-124.91,24.45-42.5,41.73,4.41,76.81,31.4,109.43C1289.44,168.32,1245.68,126.75,1288.85,81.56Zm37.84,29.58c1.61-14.12,13.66-21.07,35-24.55s51.87-3.47,76,14.13,41.69,52.8,45.63,75-5.8,31.49-24.33,30.8a69.87,69.87,0,0,1-7.15-.68h0c-1-.15-2.1-.33-3.18-.52l-.38-.07c-1-.19-2.12-.4-3.2-.63l-.4-.09c-1.11-.24-2.23-.49-3.36-.76l-.15,0c-2.37-.57-4.8-1.22-7.25-1.92l-.22-.06-3.63-1.08-.23-.07c-12.78-3.91-26.11-9.1-37.51-13.54-20.85-8.1-35.21-13.66-46.79-27.09l-1.15-1.37-.37-.47c-.25-.31-.51-.63-.76-1l-.43-.57-.68-.9-.45-.62-.64-.9-.45-.65-.63-.92-.42-.65c-.22-.33-.42-.65-.63-1l-.4-.63-.68-1.11c-.1-.18-.21-.35-.31-.52-.32-.54-.64-1.09-1-1.64l-.23-.42c-.24-.42-.47-.84-.7-1.27-.11-.21-.22-.43-.34-.64l-.55-1.07-.36-.71-.5-1c-.11-.24-.23-.48-.35-.73s-.32-.68-.47-1l-.33-.73c-.16-.35-.31-.71-.47-1.06l-.29-.69-.48-1.16-.24-.6c-.2-.51-.4-1-.59-1.54l-.08-.21c-.22-.6-.43-1.2-.64-1.8v0h0C1327.25,124.79,1326,117.29,1326.69,111.14Zm-78.87,164.31c67.78-9.1,253.29-10.18,309.37,33.53,50.46,39.31,81,145.28,36.89,198.3-15.38,18.5-107.45,92.52-122.16,100.39-28.44,15.22-38.4,11.53-67.26,23.79-51.25,21.76-57.41,47.11-115.93,30.4,71.77,2.58,48.72-9.38,112-39.27,24.93-11.78,41.38-11.78,65.29-25.55,12.5-7.2,102-83.15,115.59-100.28,32.61-41,10-118.65-20.24-155.25-47.68-57.76-204.94-54.42-274.83-52.91-156.87,3.38-165.28,83.38-156,220.87C1103.23,399.41,1118.3,292.86,1247.82,275.45ZM1498.6,1287.64c-50.46-14.93-94.66-45.5-135.85-77.19,72.5,38.45,161.09,100.64,245.07,57.31,126.71-65.39,96-212.56,20.61-304.62-100.62-122.88-121.85-155.09-270-67.63,85.65-68.41,146.28-91.39,225.82-6.37,71.54,76.49,159.8,169.36,123.8,286.77C1680.88,1264.39,1590.26,1314.76,1498.6,1287.64Zm106.72,180.87c1.84-30.11,12-58.82,31-85.69q.83-1.17,1.68-2.34l.54-.73c.39-.53.78-1.07,1.18-1.6.22-.28.44-.57.65-.86l1.14-1.47c.22-.3.45-.59.67-.88l1.18-1.49.65-.81c.47-.59,1-1.17,1.42-1.75.15-.17.29-.35.43-.53.61-.73,1.22-1.46,1.84-2.18l.69-.81,1.2-1.39.84-1,1.08-1.21.91-1,1-1.13,1-1c.34-.37.69-.73,1-1.09l1-1c.48-.51,1-1,1.46-1.5l1.51-1.52.86-.85,1.19-1.16.81-.78,1.22-1.16.77-.71c.42-.4.85-.79,1.28-1.18l.65-.59q2.53-2.28,5.08-4.4l.11-.09c.51-.43,1-.85,1.55-1.26l.48-.39c.49-.4,1-.79,1.49-1.18l.51-.4,1.52-1.16.39-.29q3.56-2.65,7.09-4.92l.25-.16,1.59-1,.4-.24c.51-.31,1-.62,1.55-.91l.36-.21,1.61-.91h0a59.42,59.42,0,0,1,14.26-5.75c21.31-5.1,36.14,9.72,41.69,27.79s1.86,39.37,0,65.77-1.85,57.9-10.18,87.08-25,56-46.33,64.84-47.24-.46-63.45-20.83a81.08,81.08,0,0,1-9.67-15.71h0l-.2-.44c-.45-.95-.88-1.91-1.3-2.89l-.18-.41c-.46-1.07-.89-2.15-1.31-3.24-.11-.3-.22-.6-.34-.9-.38-1-.76-2.06-1.12-3.11,0-.14-.09-.28-.14-.42-.36-1.07-.7-2.15-1-3.23l-.3-1c-.33-1.11-.65-2.23-1-3.37-.06-.22-.11-.44-.17-.66-.25-1-.49-2-.72-2.94-.08-.37-.17-.74-.25-1.11-.25-1.13-.5-2.27-.72-3.42-.06-.31-.11-.61-.17-.92-.18-.94-.35-1.89-.51-2.84-.06-.37-.13-.75-.19-1.12-.18-1.16-.35-2.32-.51-3.49-.05-.35-.09-.7-.13-1.06-.13-1-.24-1.9-.34-2.85l-.12-1.07c-.11-1.18-.22-2.37-.31-3.56,0-.37,0-.74-.08-1.11-.07-1-.13-2-.18-3,0-.31,0-.61,0-.91-.05-1.21-.09-2.43-.12-3.64,0-.37,0-.73,0-1.1,0-1.09,0-2.18,0-3.27,0-.2,0-.4,0-.6,0-1.25,0-2.5.08-3.75l0-1C1605.18,1471.06,1605.24,1469.78,1605.32,1468.51Zm-233-494.22c.84-1.34,1.71-2.68,2.59-4,.3-.46.62-.91.93-1.37l1.78-2.6,1.16-1.6c.55-.77,1.11-1.55,1.68-2.32l1.27-1.66c.56-.74,1.12-1.47,1.69-2.2l1.34-1.68,1.73-2.13c.46-.56.93-1.11,1.4-1.67s1.18-1.39,1.78-2.08l1.44-1.63c.61-.69,1.23-1.37,1.85-2.05l1.47-1.59c.63-.68,1.27-1.35,1.91-2l1.5-1.55,2-2,1.5-1.48,2.08-2c.5-.47,1-.94,1.5-1.4.72-.67,1.45-1.33,2.19-2l1.46-1.3c.77-.68,1.56-1.35,2.35-2,.46-.39.91-.79,1.37-1.17.87-.73,1.75-1.44,2.64-2.16l1.15-.93c1.22-1,2.44-1.92,3.68-2.85l.17-.13c1.25-.94,2.51-1.87,3.78-2.77h0c23-16.47,48.61-26.77,71.83-26.27,43.53.92,78.73,39.83,101,67.62s31.49,44.46,41.69,62.07,21.3,36.12,22.23,64.84-8.34,67.63-32.43,97.27c-21.83,26.87-55.84,46.13-100,40.52h0c-1.39-.18-2.79-.39-4.2-.62l-1-.16c-1.13-.19-2.28-.4-3.43-.62l-1-.2c-1.44-.3-2.89-.61-4.35-1-51-12-114-56.51-143.59-104.67S1344.52,1018.75,1372.31,974.29Zm311.76-99.21c-44.61,6.58-85.78-11.86-105.38-53.24-10.24-21.64-16.51-46.22-20.84-69.67,6.06,15.64,10.72,31.23,16.8,46.68,18.9,48,47.09,72.18,100.68,67.87s65.5-36.43,70.69-83.11c3.73-33.51,16.64-76.15,13.21-107.27-5.32-48.2-23.5-47.52-61.84-63.59-59.36-24.87-60.69-22.62-118.5-2.08,59.87-36.45,84.63-18.17,145.15,3.72,34,12.29,43.63,32.93,46,69.27,1.84,27.78-7.61,64.27-11.23,93.26C1752.46,828,1743.38,866.34,1684.07,875.08ZM1598.38,658c.44-.57.9-1.13,1.37-1.68.12-.16.25-.3.38-.45.34-.39.68-.78,1-1.15l.52-.56c.33-.34.66-.68,1-1l.54-.54.1-.1h0c16.31-15.59,43.46-20.33,66.84-14.9,25.94,6,47.25,24.55,55.13,44.93s2.31,42.62-4.17,68.56-13.9,55.57-27.79,68.54-34.28,9.27-53.73-6-38-42.16-47.25-72.26S1583.09,677.86,1598.38,658ZM991.64,672.31c4.17-25.94,11.58-49.1,25-59.29s32.88-7.41,57.43,10.66,54.19,51.41,62.53,77.81c5.65,17.9,1.5,32.61-9,43.11h0l-.06.06a44.24,44.24,0,0,1-3.87,3.45l-.19.16c-.61.47-1.23.94-1.87,1.4l-.34.25c-.67.47-1.36.93-2.06,1.38l-.11.08c-.77.48-1.55,1-2.35,1.41l-.21.11q-1,.58-2.1,1.14l-.63.31c-.61.31-1.23.6-1.86.89l-.65.3c-.82.37-1.66.73-2.51,1.07-23.16,9.26-56.51,8.34-78.75,6.48s-33.34-4.63-38.44-20.37c-.2-.61-.38-1.25-.56-1.89l-.15-.54c-.12-.49-.25-1-.37-1.49l-.15-.63c-.14-.64-.28-1.3-.41-2,0-.26-.09-.52-.14-.78-.09-.47-.17-.95-.25-1.43,0-.15-.05-.29-.07-.43v0C987,717.19,988.19,693.8,991.64,672.31ZM1116.76,950.4q1,1.11,1.89,2.25l.59.75c.41.52.82,1.05,1.22,1.59l.66.89c.37.51.73,1,1.09,1.54l.63.92c.37.55.73,1.1,1.09,1.66.17.28.36.55.53.83.5.8,1,1.61,1.45,2.42l.14.25c.46.81.91,1.62,1.34,2.45.16.31.32.62.47.93.3.57.59,1.15.86,1.73.18.36.34.72.51,1.08l.75,1.65.48,1.11c.24.58.47,1.16.7,1.74.13.35.28.7.41,1,.3.79.58,1.58.86,2.38l.27.82q.39,1.17.75,2.37l.33,1.13c.16.58.32,1.16.47,1.75l.32,1.25.39,1.68.27,1.28q.18.87.33,1.74c.07.41.15.81.22,1.22.12.75.23,1.5.34,2.26.06.44.11.88.17,1.32q.14,1.13.24,2.25c0,.42.06.84.09,1.26q.08.87.12,1.74l.06,1.36c0,.56,0,1.11,0,1.67s0,.91,0,1.37l0,1.74c0,.43,0,.86,0,1.29,0,.74-.08,1.49-.14,2.23,0,.49-.07,1-.12,1.46-.06.74-.14,1.48-.23,2.22,0,.43-.11.86-.17,1.29s-.17,1.16-.26,1.74l-.24,1.36q-.15.84-.33,1.68c-.09.45-.19.9-.29,1.35s-.28,1.17-.42,1.75c-.11.42-.21.84-.32,1.26-.21.77-.44,1.54-.67,2.31l-.39,1.23c-.25.76-.51,1.53-.78,2.29l-.46,1.2c-.16.41-.3.82-.47,1.22h0a74.59,74.59,0,0,1-9.15,16.41c-23.16,31.49-76,53.73-113,62.53s-58.36,4.17-83.83-19.92-55.13-67.63-61.14-110.7,11.58-85.69,41.22-98.19A56.28,56.28,0,0,1,924,877.73h0c.82-.05,1.65-.08,2.49-.11h.07c1,0,2,0,3,0l1,0,2.05.06,1.13.06c.67,0,1.34.08,2,.13l1.08.09c.83.07,1.67.16,2.52.25l.57.06c1,.12,2.06.25,3.09.4l1,.16,2.17.34,1.19.21,2.11.39,1.13.22c.85.16,1.71.34,2.56.53l.68.14,3.26.75.86.21c.83.2,1.65.4,2.48.62l1.09.28c.79.2,1.57.41,2.36.63l1,.28,2.8.79.54.16c1.16.33,2.33.68,3.49,1l.36.12c1,.31,2.07.63,3.11,1l.79.25c.94.29,1.87.59,2.81.9l.71.23,3.33,1.1.11,0q3.72,1.25,7.45,2.55h0c6.58,2.29,13.19,4.67,19.77,7l1.26.45,1.91.67,3.32,1.17C1056.54,914.73,1094.53,924.92,1116.76,950.4Zm-59.58-146.73c33.06-3.54,80.69-3.66,107.44-25,50.64-40.41-39.91-160.3-71.85-190.22-21.57-20.21-28.58-22.59-56-16.12-71.91,16.93-68.11,13.2-82.59,83.32.07-72.29,17.54-74.66,80.43-91.56,30.59-8.2,40.85-5,65.21,16.69,38,33.81,95.27,117.49,89,170.58C1182.38,804.81,1097.1,809.41,1057.18,803.67ZM1014.5,827.3c-79.63-6.25-171.86-20-199.88,82.8-18.87,69.25,30.16,152.78,59.5,216.95,23,50.26,54.13,47.11,112.5,43.51,70.42-4.35,202.05-24.94,212.25-114.11,8.15-71.2-7.75-87.49-45-145,46.16,53.35,62.3,71.93,56.55,146.25-7.57,98-144.71,125.26-222.31,131.77-67.69,5.68-106,6.58-132.59-54.8-30-69.21-77.28-154.43-54.72-228.63C832.2,802.62,928.53,804.36,1014.5,827.3Zm161-341.54c0-1.4-.06-2.82-.06-4.24,0-.53,0-1.07,0-1.61,0-.89,0-1.79,0-2.7,0-.63.06-1.27.08-1.91,0-.82.07-1.64.12-2.46s.09-1.37.13-2,.11-1.58.18-2.38.13-1.42.2-2.13.15-1.56.23-2.34.17-1.45.26-2.18.19-1.55.29-2.33.21-1.47.32-2.21.23-1.56.35-2.34.24-1.48.37-2.22.27-1.57.41-2.36.27-1.47.41-2.21l.48-2.39c.15-.73.3-1.46.46-2.19l.54-2.43c.17-.72.33-1.43.5-2.15s.41-1.66.62-2.5.34-1.38.53-2.07c.22-.87.46-1.74.7-2.61.18-.65.35-1.3.54-1.95.27-.94.54-1.87.82-2.8.17-.58.34-1.16.52-1.74.33-1.07.67-2.13,1-3.2l.42-1.32q.75-2.28,1.55-4.54h0c9.24-26.1,23.13-50,39.36-64.76,30.57-27.8,69.48-23.17,110.24-23.17s83.37-4.63,121.81,6.49,72.73,38,84.77,69.48,1.85,67.62-21.31,91.24a121.59,121.59,0,0,1-23.49,18.2h0l-.17.11c-13.25,8.13-28.13,15-43.19,22.58l-1.24.63c-1.07.53-2.13,1.07-3.2,1.62l-2.57,1.33-1.6.83-2.58,1.37-1.33.7-3.76,2.06-1,.54c-1,.57-2,1.14-3,1.73l-1.15.66q-1.95,1.13-3.89,2.3c-32.89,19.92-62.53,48.63-95.88,57.9s-70.4-.93-101.44-22.23S1176.85,532.07,1175.46,485.76Zm-375-200.54c33.25,6,73.16,11.48,106.88,15.57,70.29,8.54,140.44-6.14,196.89-50.58,36.51-28.74,54.29-55.9,24.14-96.18-6.47-8.65-14.24-17.2-21.11-25.91,13.75,11.53,27.68,24.38,36.27,40.42,25.92,48.4-34.64,93.41-71.15,113.55-61.34,33.84-111.72,38.3-179.41,27.28C812.45,296.28,747.8,291,680.57,239.86,730.45,263.33,742.13,274.71,800.43,285.22Zm1.25,211.89v0c-.07,8.38-.63,17.6-1.22,27.55-.1,1.68-.2,3.37-.29,5.08,0,.2,0,.4,0,.59q-.17,2.85-.31,5.77c-1.86,36.12-1.86,80.59-7.41,112.09s-16.68,50-37.06,53.72-50-7.41-84.3-18.52l-7.81-2.52-2.55-.82-2.5-.8-4.91-1.59-1.51-.5q-2.5-.81-5-1.65l-1.42-.47c-1.69-.57-3.38-1.14-5.07-1.73l-1.28-.44c-1.74-.61-3.47-1.22-5.19-1.85l-1.09-.39q-2.69-1-5.35-2l-.79-.31q-2.8-1.08-5.56-2.21l-.2-.08h0c-17.57-7.22-33.63-16-45.19-28-22.23-23.16-27.79-58.35-18.53-88s33.36-53.74,62.07-72.26,62.07-31.51,94.5-36.13,63.92-.93,77.81,14.82c7.56,8.57,9.91,20.72,10.18,35.83h0v.17C801.69,494,801.69,495.53,801.68,497.11ZM270,635.58c61-16.92,114.82-38.17,152.4-91.82,26.88-38.38,115.72-200.88,90.87-241.14-7.89-12.77-31.59-6.73-43.88-5.42,10.16-3.21,11.88-4.24,22.29-5.63,66.23-8.8,9.6,121.85-.09,145.05-28.91,69.29-62.13,142-133.11,176.1-58.56,28.13-134.74,47-199.65,34.22C206.2,645.3,220.6,649.3,270,635.58ZM166,1081c-10.37,11.07-19.66,16.47-32.5,23.81,21.47-20.43,37.75-31.09,44.42-62,13.31-61.84-16.4-123.54-52.47-171.94C97.23,833,87.89,832.4,53.65,807.29c54.53,18.09,100.16,76.86,122.51,127.27C194.8,976.61,199.22,1045.49,166,1081Zm227.17,398.5c-51.74,7.36-122.65,12.87-161.42-28-45-47.42-28-110.12-3.43-162.18,11.74-24.9,24.25-54.1,36.44-78,38.28-75,60.78-87.91,136.84-55.87-76.54-14.33-87.18-24.76-127.3,60.42-11.55,24.52-23,53.46-34.19,78.9-22.51,51-38.3,115.75,14.21,155.65,33.54,25.49,96.54,21.46,137.37,16.79,103.41-11.87,94.06-79.51,90-157.21l-.28-12.62c3.53,13.8,3,10.54,5.32,24.55C500.22,1403.92,489.16,1465.84,393.14,1479.48ZM430.65,1255c11.58,40.76,19.91,108.39,3.24,143.59l-.93,1.87h0c-17.26,33.41-58.12,36.08-96.31,34.26-38.91-1.86-75-8.34-85.23-29.18s5.56-56,19-92.64,24.55-74.57,44-95.88c17.32-19,41.24-24.72,61.32-22.48h0l.18,0c1.12.13,2.22.28,3.31.45l.5.09c1.09.18,2.17.38,3.24.61C404.24,1200.3,419.07,1214.2,430.65,1255Zm62.7-371.69c-.72,56-5.76,81.91-61.83,93.35-80.72,16.48-196.8,34.17-225-69.45-20.48-75.3,13.27-115.43,56-170.87,50.56-65.56,76.57-108.27,163.91-74.66,50.85,19.57,66.5,30.84,61.83,86.76-7.38-54.36-6.59-58.92-64.7-78.92-77.14-26.54-97.24,3.82-141.67,63.57-40.95,55.07-79,96.12-60.36,170.21,23.49,93.54,136.17,76.38,208.36,64,52.93-9,54.73-32.59,59.36-84.23,1.87-20.82.16-6.28,2.95-27.24C493.38,870.73,493.54,868.42,493.35,883.27ZM451.11,772.09v1c0,.94,0,1.89,0,2.83,0,.36,0,.72,0,1.08l-.06,2.79,0,1.09c0,.95-.07,1.9-.1,2.85,0,.34,0,.69-.05,1,0,1-.09,2-.14,3,0,.3,0,.61-.05.92-.05,1.08-.12,2.17-.19,3.26l0,.63q-.26,4-.57,8v0c-.1,1.27-.2,2.54-.31,3.8l-.09,1.07-.24,2.79c0,.47-.09.93-.13,1.39-.07.81-.14,1.62-.22,2.42l-.15,1.69c-.07.69-.13,1.38-.2,2.08s-.13,1.43-.2,2.15c-.05.49-.09,1-.14,1.46-.13,1.42-.27,2.83-.4,4.23,0,.28-.05.56-.08.84-.09.94-.18,1.88-.26,2.82,0,.34-.07.69-.1,1-.09.94-.17,1.88-.25,2.81,0,.29-.06.58-.08.87-.11,1.21-.21,2.4-.31,3.59-3.27,39.08-1.72,65.58-20.91,82.68-.69.62-1.42,1.22-2.17,1.81-.24.2-.5.39-.75.58-.52.4-1.06.8-1.61,1.19l-.88.62c-.57.39-1.16.77-1.75,1.15l-.8.51c-.84.51-1.69,1-2.57,1.51l-.91.49c-.62.33-1.24.66-1.88,1-.4.21-.81.41-1.21.6-.57.28-1.15.55-1.74.82l-1.28.58q-1,.43-2,.84l-1.66.67c-.78.3-1.56.6-2.36.89l-1.54.53-1.73.59-1.67.52-1.74.52-1.69.49-2.34.61q-1.28.33-2.58.63l-1.79.41-1.91.4-1.75.34c-.64.13-1.28.25-1.93.36l-1.91.32-2.63.41-2.64.36-1.85.22-2.06.22-.91.1h0a168.36,168.36,0,0,1-40.41-1c-37.58-5.6-72.83-24.5-73.31-66.6S289.61,763.49,330.46,730s88.23-35.18,107.89-10.18a44.34,44.34,0,0,1,4.86,7.76h0c.44.89.86,1.81,1.26,2.74.06.14.11.27.16.41.34.8.66,1.62,1,2.45.09.26.18.53.28.8.25.72.5,1.44.73,2.18.1.31.19.63.28,1,.21.7.42,1.41.61,2.13l.27,1c.18.71.35,1.44.51,2.17.08.35.16.7.23,1,.16.75.31,1.51.46,2.27l.18,1c.15.8.28,1.61.4,2.43.05.31.1.62.14.94.13.9.25,1.82.36,2.74,0,.23.06.47.08.7.13,1.15.25,2.3.35,3.46v0q.31,3.68.46,7.49a2.71,2.71,0,0,1,0,.29c.05,1.13.08,2.27.1,3.42,0,.25,0,.51,0,.77Zm78.46-281.92c67.19-62.33,114.6-98.73,207.67-99.72C638.47,412.59,615,427.73,540.47,501.65c-43.39,43.07-52.08,67.45-22.8,126,40.39,80.79,153.11,134.67,238.23,123.38,53.63-7.11,72.05-51.89,97.45-93.56-18.58,50.14-37.56,95.66-95.56,105.91-90.17,16-216.72-38.93-258.45-126.82C467.81,570.18,479.09,537,529.57,490.17Zm181.31,974.62c-.34.87-.67,1.73-1,2.58l-.08.18c-.31.79-.62,1.57-.94,2.34l-.13.33c-.29.71-.59,1.42-.88,2.11l-.2.47c-.27.65-.55,1.29-.83,1.93l-.24.55c-.26.6-.53,1.19-.79,1.78l-.29.63c-.25.55-.5,1.1-.76,1.64l-.33.7c-.24.52-.48,1-.73,1.52-.12.26-.24.51-.37.75-.23.48-.46,1-.7,1.41-.14.27-.27.54-.41.8-.23.44-.45.88-.68,1.31l-.45.83-.67,1.23-.47.84-.67,1.17-.5.85-.67,1.1c-.17.28-.34.57-.52.85s-.45.71-.67,1.06l-.54.83c-.23.36-.47.7-.71,1.05l-.53.79-.8,1.11-.47.66c-.41.56-.83,1.11-1.25,1.65l-.05.06a58.45,58.45,0,0,1-23.81,18.61c-20.85,8.8-51.42,7.87-60.22-17.13s4.17-74.11,29.64-100.05A76.39,76.39,0,0,1,676.54,1380v0l.8-.15,1.75-.32,1.21-.19c.56-.09,1.11-.16,1.66-.23l1.24-.14,1.6-.15,1.24-.09,1.57-.06,1.21,0c.53,0,1,0,1.58,0s.76,0,1.13,0c.57,0,1.13.06,1.69.11l1,.06q1.27.12,2.52.3l.81.14c.57.09,1.13.18,1.68.3l1,.23c.47.11.93.21,1.39.33l1,.3,1.28.4c.34.11.67.24,1,.36s.82.3,1.21.47l1,.41c.39.17.78.36,1.16.54l.88.46c.38.2.75.42,1.11.64s.55.32.81.49.73.49,1.08.74l.71.51c.38.29.74.6,1.1.91.18.16.37.31.54.47.53.47,1,1,1.51,1.49C730.33,1404.11,721.07,1438.39,710.88,1464.79Zm-51.34-418.23c-9.27,9.27-30.57,12-50,16.68l-2.34.57-.62.15-2,.5-.26.06-2.81.71-1.46.36-.85.2-1.89.46-.47.11-1.86.43-.7.15-1.57.34-.58.12-2,.38-.54.1-1.56.25-.62.09c-.67.1-1.34.19-2,.26h-.11c-.63.07-1.25.13-1.86.17l-.56,0c-.53,0-1.06.06-1.58.07h-.39c-.64,0-1.28,0-1.91,0l-.38,0c-.52,0-1-.06-1.54-.1l-.45-.05a25.41,25.41,0,0,1-3.64-.66l-.19,0h0a22.16,22.16,0,0,1-11.89-7.88c-11.58-14.37-17.14-49.56-10.66-76.43s25-45.39,41.22-52.34,30.11-2.32,41.7,12a90.27,90.27,0,0,1,7.71,11.48h0l.17.31c.43.75.86,1.5,1.27,2.27a2,2,0,0,1,.11.2q.6,1.11,1.2,2.25l.35.69c.41.78.8,1.57,1.2,2.37.07.15.14.3.22.45l1,2.08c.13.25.25.51.37.77.37.8.74,1.6,1.1,2.41.1.21.19.43.29.64.29.66.59,1.33.88,2,.11.27.23.53.35.8.34.82.69,1.63,1,2.45l.3.75.81,2,.31.78c.33.83.65,1.66,1,2.5.1.25.2.5.29.76.27.69.53,1.39.79,2.08l.24.67c.32.85.62,1.69.93,2.54.08.25.17.5.26.74.26.74.52,1.47.77,2.2l.18.51.87,2.58c.07.23.15.46.23.69.26.79.52,1.58.77,2.37l.09.27c.28.87.55,1.72.82,2.58.07.21.13.42.2.63.26.86.53,1.71.78,2.56C666,1021.55,668.8,1037.29,659.54,1046.56Zm-149.27-10.65c-7.56-41.29-7.57-68.88,22.28-100.18C513,969.17,508.67,978.09,515.14,1019c9.93,62.83,36.34,97.1,104.17,78,11.38-3.22,61-18.33,69.27-23.06,44.54-25.32.71-105.49-12.35-138.2,17.39,24.06,34.29,58.54,38.46,87.92,6,42.64-9.44,56.55-47.64,69.43-21.86,7.38-54,20.71-76.15,21C540.22,1114.73,518.51,1081,510.27,1035.91Zm118.91,534.73c-52-11-66.94-47.46-65.43-96.24,2-65.3,19.34-95.41,80.55-118.55-48.36,31.45-65.71,38.81-70,102.94-3.18,47.22,4.93,88.79,57.24,101.6,49.57,12.16,81.78-22,103.13-61.73,5.27-9.82,9.07-17.68,14.87-27.43C733.27,1526.42,695.64,1584.73,629.18,1570.64Zm373.51,195.08c-37.63-26.32-125.58-69.67-169.62-76.76-69.05-11.11-101.71,16.37-158.3,44.22C788.6,1640.66,878.05,1676,991.31,1748c39.82,25.31,55,51.78,67.21,97.08l2.28,10C1042.81,1819.49,1037.57,1790.11,1002.69,1765.72Zm58.61-268.82c-30.86,14.3-96.54,16.9-140.33-2.61s-65.7-61.11-54.74-107.92c4.5-19.28,14.59-39.44,27.32-57.53.61-.88,1.24-1.75,1.87-2.62l.83-1.14q1.14-1.56,2.31-3.09l.89-1.15c.8-1,1.6-2.06,2.42-3.08l.7-.86c.7-.87,1.41-1.73,2.12-2.58l.78-.93c.84-1,1.69-2,2.55-3l.86-1c.87-1,1.75-2,2.63-2.91l.67-.72c.8-.85,1.59-1.69,2.4-2.53l.65-.68c.92-.94,1.84-1.87,2.77-2.78l.78-.78c.94-.91,1.87-1.81,2.81-2.69l.62-.57c.88-.82,1.76-1.62,2.64-2.41l.49-.44c1-.87,1.95-1.71,2.93-2.53l.7-.59c1-.81,1.95-1.61,2.92-2.39l.56-.44q1.42-1.12,2.85-2.19l.31-.23c1-.75,2-1.47,3-2.17l.62-.44c1-.68,2-1.34,3-2l.52-.34c1-.64,2-1.25,3-1.84l.14-.09c1-.6,2-1.16,3-1.71l.57-.31c1-.52,1.93-1,2.89-1.49l.53-.25c1-.48,2-.94,3-1.37,34.84-14.95,60.72,7.15,80.62,39.67s33.85,75.42,42.81,109.87c.33,1.29.66,2.56,1,3.83.09.36.18.71.26,1.07.24.94.47,1.88.69,2.8.1.38.19.76.28,1.14q.9,3.78,1.65,7.4c0,.1.05.21.07.31h0C1088.53,1464.94,1087,1485,1061.3,1496.9Zm-50.69-250.19c-36.16-2.54-75.63-5.85-105.88,15.87-28.2,20.26-81.8,83.61-86.18,118.75-4.17,33.51,24.34,114.05,51.86,134.77,36.32,27.36,125,37.66,167.56,29.94,16.19-2.93,34.17-8.29,50.57-12.1-17.7,8-30.21,13.27-49.31,17.87-45.09,10.88-136.59,2.46-176.08-25.66-32.71-23.3-64.55-108-60.49-147.12,4.43-42.69,73.81-120.42,111.56-137,25.41-11.2,83.31-8.8,111-3.32,50,9.89,66.39,60.46,80.1,104C1079.2,1293.91,1070.83,1250.93,1010.61,1246.71Zm113.68,401.39c-13.36-79.42,25.89-144.36,99.62-174.67,112.94-46.43,228.74-82,284.75,54.14,30.76,74.76,51.1,125.73,7.95,196.65,29.72-79.69,15.65-112-20.11-191.35-57-126.36-158.64-82.61-265-40.07-60,24-89.47,61.18-92.42,128.42-5,114.29,123,125.54,210.75,158.14l21.62,8.72c-28-5.41-18.17-3-46.09-10.31C1249.21,1758,1139.94,1741.09,1124.29,1648.1Zm72.35-38.62s0-.1,0-.15c.06-1.26.15-2.52.25-3.78,0-.19,0-.39,0-.59.11-1.24.24-2.49.39-3.73,0-.21.05-.42.08-.63.15-1.24.33-2.48.53-3.71,0-.22.07-.43.11-.65.2-1.23.43-2.46.68-3.69,0-.22.09-.44.14-.65.25-1.23.53-2.45.83-3.67.06-.22.11-.44.17-.66.31-1.22.64-2.43,1-3.64.06-.22.13-.43.19-.64.36-1.22.75-2.43,1.16-3.63l.21-.62c.42-1.21.86-2.41,1.32-3.61l.24-.59c.47-1.2,1-2.39,1.5-3.58.08-.19.17-.37.25-.55.54-1.2,1.1-2.39,1.68-3.56.09-.17.18-.34.26-.51.6-1.19,1.23-2.37,1.88-3.54l.26-.45c.67-1.18,1.36-2.35,2.09-3.51.08-.13.16-.26.25-.39.74-1.17,1.5-2.33,2.3-3.48l.23-.32c.82-1.17,1.66-2.32,2.54-3.46l.19-.24q1.35-1.74,2.8-3.43l.12-.13c1-1.16,2-2.31,3.09-3.43,36.13-38,112.09-53.72,161.19-40.76s71.33,54.66,88,90.32c.65,1.39,1.28,2.76,1.91,4.13.2.43.4.86.59,1.29.54,1.17,1.07,2.33,1.59,3.49.1.23.21.45.31.68.64,1.44,1.27,2.86,1.89,4.28l.21.47c12.83,29.41,20,54.72,12,78.3-9.27,27.33-38.91,52.34-70.41,55.58s-64.84-15.28-102.83-25.47-80.59-12-103.75-43.08c-11.91-16-18.67-39.61-17.52-64Zm220.21,216.63c22.69-6.94,48.64-7.86,69-5.09,1.17.16,2.33.34,3.47.52l1.29.23,2.09.37,1.42.29,1.86.4,1.4.32c.25.06.51.11.76.18h0c14,3.46,24.1,9.33,28.47,18.06,5.55,11.12,1.84,26.86-12.51,44s-39.37,35.66-65.31,44.92-52.81,9.26-68.55-4.16c-10.6-9-16.15-24.15-16.4-39.14h0c0-.14,0-.27,0-.41,0-.62,0-1.23,0-1.84,0-.22,0-.43,0-.64,0-.81.06-1.63.12-2.44,0-.18,0-.36,0-.54,0-.64.11-1.29.18-1.93l.09-.76c.07-.61.16-1.21.25-1.82,0-.21.06-.43.1-.64.13-.8.27-1.6.44-2.39,0-.11.05-.21.07-.31.15-.69.31-1.37.48-2,.06-.23.12-.47.19-.7.15-.57.31-1.14.48-1.7l.21-.66c.24-.76.49-1.51.77-2.25C1374.7,1846,1394.16,1833.06,1416.85,1826.11ZM1531.5,1915c-53.74,38.72-104,67.13-171.81,42.48-64.34-23.4-68.77-72.68-31.87-125.64-12.71,34.61-33.55,67.63,1.87,98.87,34.08,30.07,90,30.55,129.83,13.73,24.54-10.35,76.42-40.48,92.86-60.93,28.66-35.63,24.78-75.47-17.72-95.28l-16.72-7.19c22.74,3.86,43.17,12.7,54.38,34.45C1591.52,1852.73,1560.64,1894,1531.5,1915Zm261.13-538.61c-5.47,36-11.93,56.1-13.76,94.32-3.29,69.14-3.51,144.09-92.36,153.64-54.12,5.81-100.89-26.21-118.74-77.93-5.9-17.07-6.15-23.26-9.1-41.08l14.28,39.15c19.6,46.27,61.89,75.15,112.1,68.17,56.88-7.92,71.79-43.28,75.31-94.89,3.59-52.51,2.48-71.28,14.81-125.61,6.92-30.49,15.82-92.29-22.16-108-46.85-19.32-93.84,20.35-129.29,43.72,33.14-33.12,83-72,133.3-53.29C1794.57,1288.62,1797.63,1343.53,1792.63,1376.41ZM1723.69,335.18c-24-33.94-49.71-63.39-74.19-97-26.41-36.28-43.34-48.27-15.49-86.83-14.76,37.89-14.18,37.24,14.09,72.19,19.9,24.6,38.17,46.35,58.7,70.43,18.48,21.68,30,41.34,46.6,62.64,19.4,24.88,45.89,41.25,72.45,57.66,34.92,21.58,38.72,15.13,67.93-10.41-23.86,33.36-36.5,36.42-71.76,16.8C1771.43,392.49,1756.55,381.57,1723.69,335.18Zm190.7,357.25c-46,52.77-52.23,70.19-70.74,136.76-10.15,36.53-17.53,86.94-5.35,124.32,6.47,19.85,16.29,20.24,35.2,23.59l-10.2.93c-31.1-.77-35.59-33.83-38.26-58.41-6.74-62.07,14.88-150.31,55.13-199.83,22.45-27.59,50-57.69,83.31-71.39C1940.81,666.63,1934.83,669,1914.39,692.43Z"/></g><g id="LIGHT_GRAY" data-name="LIGHT GRAY"><path class="cls-3" d="M1498.72,513.79c-13.25,8.12-28.13,15-43.19,22.58C1470.59,528.8,1485.47,521.92,1498.72,513.79Z"/><path class="cls-3" d="M1127.58,744.66a44.24,44.24,0,0,1-3.87,3.45A44.24,44.24,0,0,0,1127.58,744.66Z"/><path class="cls-3" d="M1074.09,623.68c-24.55-18.07-44-20.85-57.43-10.66s-20.85,33.35-25,59.29c-3.45,21.49-4.68,44.88-2.1,61.23l.31-1.93c4.16-25.94,11.58-49.1,25-59.29s32.88-7.41,57.43,10.66c19.74,14.51,42.75,38.9,55.35,61.62,10.48-10.5,14.63-25.21,9-43.11C1128.28,675.09,1098.64,641.74,1074.09,623.68Z"/><path class="cls-3" d="M620.82,666.05c-8.34-20-9-43.08-2.62-63.54,9.26-29.65,33.35-53.73,62.07-72.26s62.07-31.5,94.49-36.13a176.93,176.93,0,0,1,26.9-1.84c-.27-15.11-2.62-27.26-10.18-35.83-13.89-15.75-45.4-19.46-77.81-14.82s-65.78,17.59-94.5,36.13S566.37,520.37,557.1,550s-3.7,64.83,18.53,88C587.19,650.05,603.25,658.83,620.82,666.05Z"/><path class="cls-3" d="M407.06,1400.17c-38.91-1.85-75-8.33-85.22-29.18s5.55-56,19-92.63c11.18-30.47,20.76-61.89,34.88-83.86-20.08-2.24-44,3.51-61.32,22.48-19.46,21.31-30.57,59.29-44,95.88s-29.17,71.79-19,92.64,46.32,27.32,85.23,29.18c38.19,1.82,79.05-.85,96.31-34.26C424.37,1400.77,415.65,1400.58,407.06,1400.17Z"/><path class="cls-3" d="M1287.69,400.86c40.76,0,83.38-4.63,121.82,6.5s72.72,38,84.77,69.47a79.23,79.23,0,0,1,4.61,36.85,121.59,121.59,0,0,0,23.49-18.2c23.16-23.62,33.35-59.75,21.31-91.24s-46.32-58.36-84.77-69.48-81.05-6.49-121.81-6.49-79.67-4.63-110.24,23.17c-16.23,14.75-30.12,38.66-39.36,64.76C1216.34,397.17,1251.28,400.86,1287.69,400.86Z"/><path class="cls-3" d="M801.68,497.13c-.07,8.38-.63,17.6-1.22,27.55C801.05,514.73,801.61,505.51,801.68,497.13Z"/><path class="cls-3" d="M1704.43,1325.85a56.3,56.3,0,0,0-12.42,4.78c.6-.31,1.21-.61,1.81-.9.9,14.42-1.4,30.8-2.73,49.83-1.85,26.4-1.85,57.89-10.19,87.07s-25,56-46.32,64.85a44.54,44.54,0,0,1-18.09,3.31,81.08,81.08,0,0,0,9.67,15.71c16.21,20.37,42.15,29.63,63.45,20.83s38-35.67,46.33-64.84,8.33-60.68,10.18-87.08,5.56-47.71,0-65.77S1725.74,1320.75,1704.43,1325.85Z"/><path class="cls-3" d="M1692,1330.63c-.61.31-1.22.63-1.84,1C1690.79,1331.26,1691.4,1330.94,1692,1330.63Z"/><path class="cls-3" d="M1667.23,698.94c7.87,20.37,2.31,42.61-4.18,68.55-4.37,17.49-9.17,36.68-16.09,51.29a88.34,88.34,0,0,1-7.35-5.19c19.45,15.28,39.83,19,53.73,6s21.3-42.61,27.79-68.54,12-48.18,4.17-68.56-29.19-38.91-55.13-44.93c-23.38-5.43-50.53-.69-66.84,14.9a82.84,82.84,0,0,1,8.77,1.53C1638,660,1659.35,678.55,1667.23,698.94Z"/><path class="cls-3" d="M982.22,1036.5c-25.48-24.09-55.12-67.64-61.14-110.71A120,120,0,0,1,924,877.73a56.28,56.28,0,0,0-18.48,4.12C875.91,894.35,858.3,937,864.33,980s35.66,86.61,61.14,110.7,46.78,28.72,83.83,19.92,89.86-31,113-62.53a74.59,74.59,0,0,0,9.15-16.41,284.11,284.11,0,0,1-65.42,24.69C1029,1065.21,1007.69,1060.58,982.22,1036.5Z"/><path class="cls-3" d="M1628,1185.5c24.09-29.64,33.35-68.55,32.43-97.27s-12-47.24-22.23-64.84-19.46-34.28-41.69-62.07-57.44-66.7-101-67.62c-23.22-.5-48.8,9.8-71.83,26.27,37.58,7.26,68,41.24,88,66.23,22.23,27.78,31.49,44.46,41.69,62.07s21.3,36.12,22.23,64.83-8.34,67.63-32.43,97.27A120.76,120.76,0,0,1,1528,1226C1572.15,1231.63,1606.16,1212.37,1628,1185.5Z"/><path class="cls-3" d="M569.57,1005.66c6.49-26.87,25-45.39,41.22-52.34,11.11-4.76,21.13-4.09,30.06,1.43a90.27,90.27,0,0,0-7.71-11.48c-11.59-14.36-25.48-19-41.7-12s-34.73,25.47-41.22,52.34-.92,62.06,10.66,76.43a22.16,22.16,0,0,0,11.89,7.88C566.62,1050.66,564.7,1025.82,569.57,1005.66Z"/><path class="cls-3" d="M1480.79,1612l.18.43h0Z"/><path class="cls-3" d="M1480.79,1612c-.55-1.28-1.1-2.57-1.66-3.86C1479.69,1609.45,1480.24,1610.74,1480.79,1612Z"/><path class="cls-3" d="M1420.75,1742c31.5-3.24,61.14-28.25,70.41-55.58,7.59-22.43,1.46-46.42-10.19-74a63.39,63.39,0,0,1-3.2,16.21c-9.26,27.32-38.91,52.33-70.4,55.58s-64.85-15.29-102.83-25.47-80.59-12-103.75-43.08a71.85,71.85,0,0,1-4.14-6.2c-1.15,24.39,5.61,48,17.52,64,23.16,31,65.77,32.89,103.75,43.08S1389.25,1745.28,1420.75,1742Z"/><path class="cls-3" d="M1999.13,701c-1.41-.81-2.86-1.55-4.33-2.21-18.11-8.2-40.64-5.59-64,21.32a88.94,88.94,0,0,1,10.52,33.29c3.47,28.69-3.94,64.82-30,104.79a314.12,314.12,0,0,1-44.21,53c3.5,26,15.63,41.88,35.37,39l.75-.13h0c17.85-39.38,38.09-77.65,55.27-114.49l.45-1q.95-2,1.86-4l.51-1.11c1.27-2.76,2.51-5.51,3.74-8.24,0-.13.11-.26.17-.39.45-1,.88-2,1.32-3,.36-.81.71-1.61,1.07-2.41l1.2-2.77,1.17-2.73c.36-.84.72-1.68,1.07-2.52.49-1.16,1-2.31,1.45-3.47.25-.6.51-1.2.75-1.8q1.07-2.57,2.08-5.11c.23-.59.46-1.18.7-1.77.48-1.21,1-2.42,1.42-3.62.25-.64.49-1.27.73-1.9.47-1.23.93-2.45,1.39-3.68.21-.55.41-1.09.61-1.64q1-2.6,1.88-5.19l0-.06c.64-1.79,1.26-3.59,1.87-5.38l.39-1.17c.46-1.39.92-2.79,1.37-4.18l.45-1.39c.45-1.42.88-2.83,1.31-4.25.11-.34.21-.69.32-1q.8-2.68,1.55-5.34c.61-2.2,1.19-4.38,1.75-6.57l.24-.94c.54-2.16,1.07-4.32,1.56-6.47,0-.16.07-.32.1-.49q.71-3.1,1.34-6.2c0-.23.09-.45.14-.68.42-2.13.83-4.26,1.2-6.38l.15-.85q1.13-6.48,2-12.88c0-.26.06-.52.1-.78q.81-6.56,1.32-13.06a1.36,1.36,0,0,0,0-.2Z"/><path class="cls-3" d="M1083.08,1438.36c-.49-2.41-1-4.88-1.65-7.4Q1082.33,1434.74,1083.08,1438.36Z"/><path class="cls-3" d="M948.5,1433.71c-42.55-19-64.43-58.76-55.59-103.94-12.43,17.85-22.25,37.64-26.68,56.6-11,46.81,10.94,88.42,54.74,107.92s109.47,16.91,140.33,2.61c25.7-11.92,27.23-32,21.85-58.23C1050.46,1450.84,989.76,1452.09,948.5,1433.71Z"/><path class="cls-3" d="M892.91,1329.74v0l.64-.93Z"/><path class="cls-3" d="M1498.16,1823.34a77.23,77.23,0,0,1-10.87,16.57c-14.36,17.14-39.37,35.66-65.31,44.92-20.86,7.46-42.33,8.91-58.12,2.2.25,15,5.8,30.1,16.4,39.14,15.74,13.42,42.61,13.42,68.55,4.16s51-27.79,65.31-44.92,18.06-32.89,12.51-44C1522.26,1832.67,1512.16,1826.8,1498.16,1823.34Z"/><path class="cls-3" d="M330.46,730c-40.85,33.49-75.16,98.77-74.68,140.87s35.73,61,73.31,66.6a168.36,168.36,0,0,0,40.41,1c-17.47-10.73-29.57-27.39-29.84-51.91-.48-42.11,33.83-107.39,74.68-140.87a131.75,131.75,0,0,1,28.87-18.15,44.34,44.34,0,0,0-4.86-7.76C418.69,694.82,371.31,696.52,330.46,730Z"/><path class="cls-3" d="M648.58,1478.31c-8.61-24.46,3.61-71.93,28-98.27a76.39,76.39,0,0,0-38.39,21.29c-25.47,25.94-38.44,75-29.64,100.05s39.37,25.93,60.22,17.13a58.45,58.45,0,0,0,23.81-18.61C674.53,1502.41,655.26,1497.32,648.58,1478.31Z"/><path class="cls-3" d="M903.93,205.47c.46-.11.92-.21,1.37-.33q-2.67.68-5.39,1.3l.91-.22C901.86,206,902.9,205.73,903.93,205.47Z"/><path class="cls-3" d="M886.41,209.19l2-.37-2.32.44Z"/><path class="cls-3" d="M889.35,208.63l-1,.19c1.15-.21,2.3-.42,3.44-.65Z"/><path class="cls-3" d="M917.77,201.69l-3,.89-1.55.46q2.63-.75,5.22-1.54Z"/><path class="cls-3" d="M896.76,207.13c-1,.22-2,.45-3.08.66l-.53.11c2-.41,4-.83,6-1.28C898.37,206.8,897.56,207,896.76,207.13Z"/><path class="cls-3" d="M912.3,203.29c-1.48.41-3,.8-4.46,1.19l3.09-.82Z"/><path class="cls-3" d="M907.83,204.48l-1.36.37,1.37-.37Z"/><path class="cls-3" d="M937.36,195q-2.79,1.08-5.61,2.1c1.11-.4,2.2-.82,3.3-1.23Z"/><path class="cls-3" d="M924.49,199.56l-1.14.37c.56-.18,1.12-.35,1.67-.54Z"/><path class="cls-3" d="M921.51,200.52l1.84-.59c-1.34.43-2.68.87-4,1.29Z"/><path class="cls-3" d="M928.25,198.28l1.14-.4c-1.16.41-2.31.82-3.48,1.21C926.69,198.83,927.47,198.55,928.25,198.28Z"/><path class="cls-3" d="M931.08,197.3l-1.69.58c.58-.2,1.17-.39,1.75-.6Z"/><path class="cls-3" d="M881.5,210l-2.19.36c2.09-.32,4.17-.65,6.23-1C884.21,209.58,882.85,209.79,881.5,210Z"/><path class="cls-3" d="M752.21,219.58c9.46,5.19,23.6,12.94,41.37,20.67,11.67-7.58,26.91-17,44.37-26.36l.68,0q-3.07.1-6.19.17l-1.39,0c-2.3,0-4.62.06-6.95.06h-1.45q-3.48,0-7,0l-1.47,0q-3.49,0-7-.14l-1.53,0c-2.11-.06-4.22-.12-6.34-.2l-2.15-.08-6.09-.26-2.31-.11-6.17-.33-2.66-.15-6-.37-3.05-.2-5.69-.4-3.35-.25-5.48-.42-3.54-.29-5-.41-3.94-.34-4.42-.39-2-.18C738.33,212,743.1,214.59,752.21,219.58Z"/><path class="cls-3" d="M407.8,348.41h0q-1.23,2-2.48,4l-.71,1.12q-3.81,6-7.74,12.17c-.42.66-.85,1.32-1.28,2q-1.81,2.82-3.66,5.65l-1.73,2.64c-.71,1.08-1.42,2.17-2.14,3.25L386.18,382c-.84,1.26-1.68,2.53-2.53,3.79l-2.9,4.3-1.93,2.82c-.8,1.17-1.6,2.34-2.41,3.5L374.63,399c-1.23,1.75-2.46,3.51-3.71,5.27l-1.75,2.46q-1.47,2.07-3,4.13l-1.41,2c-1.36,1.87-2.74,3.73-4.12,5.6l-1.61,2.14c-1.16,1.56-2.33,3.1-3.51,4.65l-1.12,1.48q-2.22,2.9-4.48,5.76l-1.49,1.89q-2,2.54-4,5.06l-.84,1.05q-2.38,2.93-4.82,5.84L337.34,448q-2.26,2.68-4.57,5.35l-.58.68c-1.7,2-3.43,3.91-5.16,5.85l-1.37,1.53c-1.68,1.85-3.36,3.7-5.07,5.54-.12.12-.23.25-.34.37q-2.72,2.91-5.48,5.77l-1.39,1.43c-1.82,1.87-3.65,3.73-5.51,5.58l-.16.16c-1.9,1.89-3.83,3.75-5.77,5.6l-1.45,1.38c-2,1.85-3.93,3.7-5.94,5.52q-3.69,3.36-7.49,6.64l-.67.59q-3.51,3-7.1,6l-.84.7q-3.61,3-7.29,5.89l-.63.51q-3.93,3.11-7.93,6.14l-.29.22q-3.9,3-7.87,5.87l-.76.55q-3.81,2.79-7.66,5.51l-.75.53q-4,2.83-8.06,5.61l-.27.19q-4.27,2.93-8.56,5.78l-.06,0q-4.26,2.84-8.55,5.62l-.33.22q-4.27,2.76-8.56,5.48l-.06,0c-17.57,11.14-35.28,21.64-52.46,31.74h0A165.62,165.62,0,0,0,188,592.18a274.11,274.11,0,0,0,28.93,1.5c17.86-19.3,52.71-43.3,80.67-67.91,34.74-30.57,58.83-62.07,87.95-83.75,23.26-17.32,49.74-28.39,75.73-36.38,9-20.51,13.92-38.25,12-49.14C469.51,335.27,439.76,340.07,407.8,348.41Z"/><path class="cls-3" d="M71.29,879.11q3,3,5.91,6.15Q74.28,882.07,71.29,879.11Z"/><path class="cls-3" d="M949.37,190q-2.76,1.2-5.56,2.36c.81-.33,1.6-.68,2.4-1C947.27,190.93,948.32,190.49,949.37,190Z"/><path class="cls-3" d="M1925.55,726.5c.84-1.09,1.69-2.16,2.53-3.19C1927.24,724.35,1926.4,725.4,1925.55,726.5Z"/><path class="cls-3" d="M983.45,172.79h0l.51-.29Z"/><path class="cls-3" d="M980.37,174.52c1-.57,2-1.15,3.07-1.73l-3.36,1.9Z"/><path class="cls-3" d="M974.43,177.79l3.08-1.67a1.71,1.71,0,0,1,.23-.13c-1.49.82-3,1.64-4.48,2.44Z"/><path class="cls-3" d="M980.08,174.69l-2.34,1.3Z"/><path class="cls-3" d="M962.38,184c1-.5,2-1,3.06-1.52l.31-.16c-1.3.65-2.6,1.31-3.91,1.95Z"/><path class="cls-3" d="M968.21,181.06c-.82.42-1.63.84-2.46,1.25C966.58,181.9,967.39,181.48,968.21,181.06Z"/><path class="cls-3" d="M971.51,179.35l1.11-.59c-1.46.78-2.93,1.54-4.41,2.3l.23-.11Z"/><path class="cls-3" d="M953,188.42l.75-.34c-1.18.53-2.35,1.07-3.53,1.59Z"/><path class="cls-3" d="M956.05,187l-2.33,1.06Z"/><path class="cls-3" d="M959.28,185.49l1.83-.87q-2.52,1.22-5.06,2.4l.21-.1Z"/><path class="cls-3" d="M989.34,169.36l-3.08,1.8-1.78,1c1.79-1,3.58-2.08,5.36-3.13Z"/><path class="cls-3" d="M1080.54,165.16c2.39-18.94-2.49-35.5-18.38-45q-9.17,6.57-18.11,12.94l-1.7,1.21-4,2.8-2.43,1.71-3.28,2.3-2.78,1.94-3,2-3,2-2.79,1.9-3.05,2.07-2.69,1.79c-1,.7-2.09,1.4-3.13,2.08l-2.58,1.7-3.23,2.1-1.8,1.15q-3.44,2.19-6.87,4.32l-2.25,1.4c1.51-.93,3-1.86,4.53-2.81C1030.78,159,1060.18,158.94,1080.54,165.16Z"/><path class="cls-3" d="M995.13,165.87q-2.62,1.6-5.25,3.17l2.22-1.34C993.11,167.09,994.12,166.49,995.13,165.87Z"/><path class="cls-3" d="M1717.67,235c3,3.81,6.15,7.67,9.33,11.54Q1722.23,240.72,1717.67,235Z"/><path class="cls-3" d="M1882.74,337.48l.56-1.18c-.5-.87-1-1.72-1.53-2.58q-1.24-2.09-2.5-4.17c-.66-1.1-1.34-2.2-2-3.29q-1.14-1.87-2.3-3.73l-2.07-3.27c-.8-1.27-1.62-2.53-2.43-3.79-.67-1-1.33-2.06-2-3.08-1-1.49-2-3-3-4.44-.53-.78-1-1.57-1.57-2.34-1.48-2.18-3-4.34-4.49-6.5-.54-.77-1.09-1.53-1.64-2.3-1-1.48-2.1-2.95-3.17-4.41-.62-.86-1.25-1.72-1.88-2.57-1-1.41-2.08-2.8-3.13-4.19l-1.86-2.45q-1.79-2.32-3.6-4.63l-1.44-1.84q-2.57-3.21-5.17-6.37c-.3-.36-.61-.72-.91-1.09q-2.19-2.61-4.41-5.21l-1.71-2q-1.9-2.18-3.82-4.32l-1.84-2c-1.34-1.47-2.7-2.93-4.06-4.39l-1.59-1.69q-2.85-3-5.77-6-3.14-3.16-6.34-6.25l-1.08-1c-1.77-1.69-3.56-3.38-5.37-5l-1.94-1.76q-2.31-2.1-4.65-4.19c-.77-.68-1.55-1.34-2.33-2-1.46-1.27-2.92-2.54-4.4-3.8-.85-.72-1.71-1.42-2.57-2.14-1.43-1.19-2.85-2.38-4.29-3.56l-2.74-2.2q-2.12-1.69-4.24-3.38l-2.88-2.23c-1.41-1.08-2.81-2.17-4.23-3.25l-3-2.23c-1.41-1.05-2.81-2.1-4.23-3.13-1-.75-2.06-1.49-3.09-2.24l-4.23-3-3.19-2.23c-1.4-1-2.8-2-4.22-2.93-1.09-.75-2.19-1.49-3.29-2.23q-2.1-1.42-4.21-2.84l-3.39-2.23-4.19-2.74-3.51-2.25-4.15-2.64-3.62-2.26c-1.37-.85-2.73-1.7-4.11-2.54l-3.75-2.29-4-2.42-3.92-2.34-2.29-1.36h0c-21.43-.19-30.12,4.08-17,27.46a248,248,0,0,0,15.24,23.14c18.61,3.69,37.76,9.56,54.36,19.1,33.6,19.3,56.76,53.58,66.81,82.77,5.05,14.63,6.79,28,6.23,39.83,6.63,4.69,12.6,7.73,18.2,9.18C1860.77,364.8,1874.4,354.62,1882.74,337.48Z"/><path class="cls-3" d="M1334.21,131.62c21.31-3.47,51.88-3.47,76,14.13,19.19,14,34.27,39.22,41.6,60.13a69.87,69.87,0,0,0,7.15.68c18.53.69,28.26-8.57,24.33-30.8s-21.55-57.44-45.63-75-54.66-17.6-76-14.13-33.36,10.43-35,24.55c-.71,6.15.56,13.65,3.17,21.27C1331.26,132.13,1332.71,131.86,1334.21,131.62Z"/><path class="cls-3" d="M982.78,1824.69c-3.1-3-6.56-6-10.31-9.19-5-.34-10.33-.88-16-1.66-37.05-5.1-88.92-19.93-131.35-42.82-18.36-9.91-34.94-21.32-47.44-33.15-31.84,3.78-53.69,18.79-57.22,36.46-.15.74-.26,1.48-.35,2.23h0c90.71,19.91,192.31,51.32,286,84.68h0C1005,1851.5,998.27,1839.51,982.78,1824.69Z"/><path class="cls-3" d="M1677.31,1339.94q3.56-2.65,7.09-4.92Q1680.88,1337.29,1677.31,1339.94Z"/><path class="cls-3" d="M1666.18,1349.11q2.53-2.28,5.08-4.4Q1668.71,1346.82,1666.18,1349.11Z"/><path class="cls-3" d="M1429.74,200.64c-12.78-3.91-26.11-9.11-37.51-13.54C1403.63,191.54,1417,196.73,1429.74,200.64Z"/><path class="cls-3" d="M125.76,989.13q.42,4.07.66,8.06Q126.18,993.2,125.76,989.13Z"/><path class="cls-3" d="M123.93,976.4q.75,4.07,1.27,8.08Q124.67,980.46,123.93,976.4Z"/><path class="cls-3" d="M120.52,997.5c-21.28-27-41.47-47.9-50.44-70.71a76.94,76.94,0,0,1-2.21-51c-9.5-8.9-19.24-15.87-28.32-19.87a46.52,46.52,0,0,0-21.22-4.29h0c.42,1.27.85,2.55,1.28,3.83.18.56.36,1.11.55,1.66q1.07,3.15,2.16,6.31c.26.76.52,1.52.79,2.27.51,1.49,1,3,1.57,4.49.27.78.55,1.57.83,2.36l1.77,5c.21.56.41,1.13.61,1.69.81,2.26,1.64,4.52,2.47,6.79.13.37.26.73.4,1.09q1.08,3,2.18,5.94c.21.56.42,1.12.62,1.68l2.25,6c.1.27.2.55.31.83,5,13.47,10.23,27.18,15.36,41,.36,1,.72,1.92,1.07,2.89.47,1.26.94,2.52,1.4,3.78s.83,2.25,1.24,3.37.87,2.35,1.3,3.53c.61,1.68,1.23,3.37,1.84,5.06l1.41,3.93c.53,1.45,1.05,2.91,1.57,4.37l1.08,3c.48,1.36.95,2.71,1.42,4.06l1,3c.56,1.6,1.1,3.2,1.65,4.8l.75,2.19c.75,2.21,1.48,4.41,2.21,6.62.29.87.58,1.74.86,2.61l1.44,4.42c.3.93.6,1.87.89,2.8.49,1.53,1,3.05,1.44,4.58l.75,2.4c.68,2.22,1.35,4.45,2,6.67.2.67.39,1.33.58,2q.72,2.46,1.42,4.91l.72,2.58c.42,1.51.83,3,1.24,4.52.22.81.44,1.62.65,2.44.54,2,1.07,4.09,1.58,6.13,0,.2.11.4.16.6l.09.39q.75,3,1.45,6l.51,2.22c.39,1.7.77,3.39,1.14,5.09.22,1,.44,2,.65,3,.28,1.33.56,2.66.83,4,.21,1,.42,2.06.62,3.09s.42,2.17.62,3.26c.35,1.81.68,3.61,1,5.42.15.81.3,1.63.44,2.44l.63,3.7c0,.11,0,.21,0,.31,16.29,4.83,27.69-14.35,32.77-41.51a164.42,164.42,0,0,0,2.7-31.84C124.62,1002.75,122.57,1000.1,120.52,997.5Z"/><path class="cls-3" d="M126.62,1001.55c0,1.31.06,2.6.08,3.89v0C126.69,1004.16,126.66,1002.86,126.62,1001.55Z"/></g><g id="DARK_GRAY" data-name="DARK GRAY"><path class="cls-4" d="M659,998.45c-.27-.86-.54-1.71-.82-2.58l-.09-.27c-.25-.79-.51-1.58-.77-2.37-.08-.23-.16-.46-.23-.69l-.87-2.58-.18-.51c-.25-.73-.51-1.46-.77-2.2-.09-.24-.18-.49-.26-.74-.31-.85-.61-1.7-.93-2.54l-.24-.67c-.26-.69-.52-1.39-.79-2.08-.09-.26-.19-.51-.29-.76-.32-.84-.64-1.67-1-2.5l-.31-.78-.81-2-.3-.75c-.34-.82-.69-1.63-1-2.45-.12-.27-.24-.53-.35-.8-.29-.67-.59-1.34-.88-2-.1-.21-.19-.43-.29-.64-.36-.81-.73-1.61-1.1-2.41-.12-.26-.24-.52-.37-.77l-1-2.08c-.08-.15-.15-.3-.22-.45-.4-.8-.79-1.59-1.2-2.37l-.35-.69q-.6-1.14-1.2-2.25a2,2,0,0,0-.11-.2c-.41-.77-.84-1.52-1.27-2.27l-.17-.31h0c-8.93-5.52-19-6.19-30.06-1.43-16.21,6.95-34.73,25.47-41.22,52.34-4.87,20.16-3,45,3.2,62.22h0l.19,0a25.41,25.41,0,0,0,3.64.66l.45.05c.51,0,1,.08,1.54.1l.38,0c.63,0,1.27,0,1.91,0h.39c.52,0,1.05,0,1.58-.07l.56,0c.61,0,1.23-.1,1.86-.17h.11c.66-.07,1.33-.16,2-.26l.62-.09,1.56-.25.54-.1,2-.38.58-.12,1.57-.34.7-.15,1.86-.43.47-.11,1.89-.46.85-.2,1.46-.36,2.81-.71.26-.06,2-.5.62-.15,2.34-.57c19.46-4.63,40.76-7.41,50-16.68s6.48-25,.46-44.92c-.25-.85-.52-1.7-.78-2.56C659.15,998.87,659.09,998.66,659,998.45Z"/><path class="cls-4" d="M713.92,1386.4c-.36-.31-.72-.62-1.1-.91l-.71-.51c-.35-.25-.71-.5-1.08-.74s-.54-.33-.81-.49-.73-.44-1.11-.64l-.88-.46c-.38-.18-.77-.37-1.16-.54l-1-.41c-.39-.17-.8-.32-1.21-.47s-.66-.25-1-.36l-1.28-.4-1-.3c-.46-.12-.92-.22-1.39-.33l-1-.23c-.55-.12-1.11-.21-1.68-.3l-.81-.14q-1.25-.18-2.52-.3l-1-.06c-.56,0-1.12-.09-1.69-.11-.37,0-.75,0-1.13,0s-1,0-1.58,0l-1.21,0-1.57.06-1.24.09-1.6.15-1.24.14c-.55.07-1.1.14-1.66.23l-1.21.19-1.75.32-.8.15v0c-24.35,26.34-36.57,73.81-28,98.27,6.68,19,25.95,24.1,44,21.59l.05-.06c.42-.54.84-1.09,1.25-1.65l.47-.66.8-1.11.53-.79c.24-.35.48-.69.71-1.05l.54-.83c.22-.35.45-.7.67-1.06s.35-.57.52-.85l.67-1.1.5-.85.67-1.17.47-.84.67-1.23.45-.83c.23-.43.45-.87.68-1.31.14-.26.27-.53.41-.8.24-.46.47-.93.7-1.41.13-.24.25-.49.37-.75.25-.5.49-1,.73-1.52l.33-.7c.26-.54.51-1.09.76-1.64l.29-.63c.26-.59.53-1.18.79-1.78l.24-.55c.28-.64.56-1.28.83-1.93l.2-.47c.29-.69.59-1.4.88-2.11l.13-.33c.32-.77.63-1.55.94-2.34l.08-.18c.34-.85.67-1.71,1-2.58,10.19-26.4,19.45-60.68,5.09-76.43-.48-.52-1-1-1.51-1.49C714.29,1386.71,714.1,1386.56,713.92,1386.4Z"/><path class="cls-4" d="M1366.52,1868.2l-.21.66c-.17.56-.33,1.13-.48,1.7-.07.23-.13.47-.19.7-.17.68-.33,1.36-.48,2,0,.1-.05.2-.07.31-.17.79-.31,1.59-.44,2.39,0,.21-.07.43-.1.64-.09.61-.18,1.21-.25,1.82l-.09.76c-.07.64-.13,1.29-.18,1.93,0,.18,0,.36,0,.54-.06.81-.1,1.63-.12,2.44,0,.21,0,.42,0,.64,0,.61,0,1.22,0,1.84,0,.14,0,.27,0,.41h0c15.79,6.71,37.26,5.26,58.12-2.2,25.94-9.26,51-27.78,65.31-44.92a77.23,77.23,0,0,0,10.87-16.57h0c-.25-.07-.51-.12-.76-.18l-1.4-.32-1.86-.4-1.42-.29-2.09-.37-1.29-.23c-1.14-.18-2.3-.36-3.47-.52-20.38-2.77-46.33-1.85-69,5.09S1374.7,1846,1367.29,1866C1367,1866.69,1366.76,1867.44,1366.52,1868.2Z"/><path class="cls-4" d="M1081.15,1429.82c-.22-.93-.45-1.86-.69-2.8-.08-.36-.17-.71-.26-1.07-.32-1.27-.65-2.54-1-3.83-9-34.45-22.9-77.37-42.81-109.87s-45.78-54.62-80.62-39.67c-1,.43-2,.89-3,1.37l-.53.25c-1,.47-1.92,1-2.89,1.49l-.57.31c-1,.55-2,1.11-3,1.71l-.14.09c-1,.59-2,1.2-3,1.84l-.52.34c-1,.64-2,1.3-3,2l-.62.44c-1,.7-2,1.42-3,2.17l-.31.23q-1.42,1.07-2.85,2.19l-.56.44c-1,.78-1.95,1.58-2.92,2.39l-.7.59c-1,.82-1.95,1.66-2.93,2.53l-.49.44c-.88.79-1.76,1.59-2.64,2.41l-.62.57c-.94.88-1.87,1.78-2.81,2.69l-.78.78c-.93.91-1.85,1.84-2.77,2.78l-.65.68c-.81.84-1.6,1.68-2.4,2.53l-.67.72c-.88,1-1.76,1.93-2.63,2.91l-.86,1c-.86,1-1.71,2-2.55,3l-.78.93c-.71.85-1.42,1.71-2.12,2.58l-.7.86c-.82,1-1.62,2-2.42,3.08l-.89,1.15q-1.17,1.53-2.31,3.09l-.83,1.14c-.63.87-1.26,1.74-1.87,2.62l-.64.9c-8.85,45.19,13,85,55.59,104,41.26,18.38,102,17.13,134.65,5h0c0-.1,0-.21-.07-.31-.49-2.41-1-4.88-1.65-7.4C1081.34,1430.58,1081.25,1430.2,1081.15,1429.82Z"/><path class="cls-4" d="M1930.76,720.13h0l-.12.15c-.68.79-1.37,1.61-2.06,2.44l-.5.6c-.84,1-1.69,2.1-2.53,3.19-25.24,32.86-51.18,94.93-57.84,143.69-.25,1.83-.46,3.64-.66,5.43l0,.46c-.19,1.78-.36,3.54-.49,5.27v.07c-.13,1.72-.24,3.41-.32,5.09l0,.51c-.08,1.65-.13,3.29-.16,4.89v.21c0,1.58,0,3.14,0,4.68,0,.18,0,.36,0,.54,0,1.55.08,3.07.16,4.56a1.48,1.48,0,0,1,0,.21c.09,1.49.19,2.94.32,4.38,0,.14,0,.29,0,.44.14,1.47.3,2.91.49,4.33h0a314.12,314.12,0,0,0,44.21-53c26.11-40,33.52-76.1,30-104.79A88.94,88.94,0,0,0,1930.76,720.13Z"/><path class="cls-4" d="M451,764.91a2.71,2.71,0,0,0,0-.29q-.15-3.81-.46-7.49v0c-.1-1.16-.22-2.31-.35-3.46,0-.23-.05-.47-.08-.7-.11-.92-.23-1.84-.36-2.74,0-.32-.09-.63-.14-.94-.12-.82-.25-1.63-.4-2.43l-.18-1c-.15-.76-.3-1.52-.46-2.27-.07-.35-.15-.7-.23-1-.16-.73-.33-1.46-.51-2.17l-.27-1c-.19-.72-.4-1.43-.61-2.13-.09-.32-.18-.64-.28-1-.23-.74-.48-1.46-.73-2.18-.1-.27-.19-.54-.28-.8-.31-.83-.63-1.65-1-2.45-.05-.14-.1-.27-.16-.41-.4-.93-.82-1.85-1.26-2.74h0a131.75,131.75,0,0,0-28.87,18.15c-40.85,33.48-75.16,98.76-74.68,140.87.27,24.52,12.37,41.18,29.84,51.91h0l.91-.1,2.06-.22,1.85-.22,2.64-.36,2.63-.41,1.91-.32c.65-.11,1.29-.23,1.93-.36l1.75-.34,1.91-.4,1.79-.41q1.31-.3,2.58-.63l2.34-.61,1.69-.49,1.74-.52,1.67-.52,1.73-.59,1.54-.53c.8-.29,1.58-.59,2.36-.89l1.66-.67q1-.4,2-.84l1.28-.58c.59-.27,1.17-.54,1.74-.82.4-.19.81-.39,1.21-.6.64-.32,1.26-.65,1.88-1l.91-.49c.88-.49,1.74-1,2.57-1.51l.8-.51c.59-.38,1.18-.76,1.75-1.15l.88-.62c.55-.39,1.09-.79,1.61-1.19.25-.19.51-.38.75-.58.75-.59,1.48-1.19,2.17-1.81,19.19-17.1,17.64-43.6,20.91-82.68.1-1.18.2-2.38.31-3.59,0-.29.05-.58.08-.87.08-.93.16-1.87.25-2.81,0-.34.06-.69.1-1,.08-.94.17-1.88.26-2.82,0-.28.05-.56.08-.84.13-1.4.27-2.81.4-4.23,0-.49.09-1,.14-1.46.07-.72.13-1.43.2-2.15s.13-1.39.2-2.08l.15-1.69c.08-.8.15-1.61.22-2.42,0-.46.09-.92.13-1.39l.24-2.79.09-1.07c.11-1.26.21-2.53.31-3.8v0q.31-4,.57-8l0-.63c.07-1.09.14-2.18.19-3.26,0-.31,0-.62.05-.92.05-1,.1-2,.14-3,0-.35,0-.7.05-1,0-1,.07-1.9.1-2.85l0-1.09.06-2.79c0-.36,0-.72,0-1.08,0-.94,0-1.89,0-2.83v-1l0-3c0-.26,0-.52,0-.77C451,767.18,451,766,451,764.91Z"/><path class="cls-4" d="M1108.83,756.61c.85-.34,1.69-.7,2.51-1.07l.65-.3c.63-.29,1.25-.58,1.86-.89l.63-.31q1.07-.56,2.1-1.14l.21-.11c.8-.46,1.58-.93,2.35-1.41l.11-.08c.7-.45,1.39-.91,2.06-1.38l.34-.25c.64-.46,1.26-.93,1.87-1.4l.19-.16a44.24,44.24,0,0,0,3.87-3.45l.06-.06h0C1115,721.88,1092,697.49,1072.29,683c-24.55-18.07-44-20.86-57.43-10.66s-20.85,33.35-25,59.29l-.31,1.93v0c0,.14.05.28.07.43.08.48.16,1,.25,1.43,0,.26.09.52.14.78.13.67.27,1.33.41,2l.15.63c.12.51.25,1,.37,1.49l.15.54c.18.64.36,1.28.56,1.89,5.1,15.74,16.21,18.52,38.44,20.37S1085.67,765.87,1108.83,756.61Z"/><path class="cls-4" d="M1011.48,899l-1.26-.45c-6.58-2.34-13.19-4.72-19.77-7h0q-3.74-1.31-7.45-2.55l-.11,0-3.33-1.1-.71-.23c-.94-.31-1.87-.61-2.81-.9l-.79-.25c-1-.33-2.07-.65-3.11-1l-.36-.12c-1.16-.35-2.33-.7-3.49-1l-.54-.16-2.8-.79-1-.28c-.79-.22-1.57-.43-2.36-.63l-1.09-.28c-.83-.22-1.65-.42-2.48-.62l-.86-.21-3.26-.75-.68-.14c-.85-.19-1.71-.37-2.56-.53l-1.13-.22-2.11-.39-1.19-.21-2.17-.34-1-.16c-1-.15-2.06-.28-3.09-.4l-.57-.06c-.85-.09-1.69-.18-2.52-.25l-1.08-.09c-.68-.05-1.35-.1-2-.13l-1.13-.06-2.05-.06-1,0c-1,0-2,0-3,0h-.07c-.84,0-1.67.06-2.49.11h0a120,120,0,0,0-2.95,48.06c6,43.07,35.66,86.62,61.14,110.71s46.78,28.71,83.83,19.91a284.11,284.11,0,0,0,65.42-24.69h0c.17-.4.31-.81.47-1.22l.46-1.2c.27-.76.53-1.53.78-2.29l.39-1.23c.23-.77.46-1.54.67-2.31.11-.42.21-.84.32-1.26.14-.58.29-1.16.42-1.75s.2-.9.29-1.35.23-1.12.33-1.68l.24-1.36c.09-.58.18-1.16.26-1.74s.12-.86.17-1.29c.09-.74.17-1.48.23-2.22,0-.48.09-1,.12-1.46.06-.74.11-1.49.14-2.23,0-.43,0-.86,0-1.29l0-1.74c0-.46,0-.91,0-1.37s0-1.11,0-1.67l-.06-1.36q0-.87-.12-1.74c0-.42,0-.84-.09-1.26q-.1-1.12-.24-2.25c-.06-.44-.11-.88-.17-1.32-.11-.76-.22-1.51-.34-2.26-.07-.41-.15-.81-.22-1.22q-.15-.87-.33-1.74l-.27-1.28-.39-1.68-.32-1.25c-.15-.59-.31-1.17-.47-1.75l-.33-1.13q-.36-1.2-.75-2.37l-.27-.82c-.28-.8-.56-1.59-.86-2.38-.13-.35-.28-.7-.41-1-.23-.58-.46-1.16-.7-1.74l-.48-1.11-.75-1.65c-.17-.36-.33-.72-.51-1.08-.27-.58-.56-1.16-.86-1.73-.15-.31-.31-.62-.47-.93-.43-.83-.88-1.64-1.34-2.45l-.14-.25c-.47-.81-1-1.62-1.45-2.42-.17-.28-.36-.55-.53-.83-.36-.56-.72-1.11-1.09-1.66l-.63-.92c-.36-.52-.72-1-1.09-1.54l-.66-.89c-.4-.54-.81-1.07-1.22-1.59l-.59-.75q-.93-1.14-1.89-2.25c-22.23-25.48-60.22-35.67-100-49.56l-3.32-1.17Z"/><path class="cls-4" d="M801.66,492.28a176.93,176.93,0,0,0-26.9,1.84c-32.42,4.63-65.77,17.6-94.49,36.13s-52.81,42.61-62.07,72.26c-6.4,20.46-5.72,43.57,2.62,63.54h0l.2.08c1.84.76,3.69,1.49,5.56,2.21l.79.31q2.67,1,5.35,2l1.09.39c1.72.63,3.45,1.24,5.19,1.85l1.28.44c1.69.59,3.38,1.16,5.07,1.73l1.42.47q2.49.84,5,1.65l1.51.5,4.91,1.59,2.5.8,2.55.82,7.81,2.52c34.28,11.11,63.92,22.23,84.3,18.52s31.49-22.23,37.06-53.72,5.55-76,7.41-112.09q.15-2.93.31-5.77c0-.19,0-.39,0-.59.09-1.71.19-3.4.29-5.08.59-9.95,1.15-19.17,1.22-27.55v0c0-1.58,0-3.13,0-4.66v-.17Z"/><path class="cls-4" d="M1605,1477.09c0,.2,0,.4,0,.6,0,1.09,0,2.18,0,3.27,0,.37,0,.73,0,1.1,0,1.21.07,2.43.12,3.64,0,.3,0,.6,0,.91,0,1,.11,2,.18,3,0,.37,0,.74.08,1.11.09,1.19.2,2.38.31,3.56l.12,1.07c.1,1,.21,1.9.34,2.85,0,.36.08.71.13,1.06.16,1.17.33,2.33.51,3.49.06.37.13.75.19,1.12.16,1,.33,1.9.51,2.84.06.31.11.61.17.92.22,1.15.47,2.29.72,3.42.08.37.17.74.25,1.11.23,1,.47,2,.72,2.94.06.22.11.44.17.66.3,1.14.62,2.26,1,3.37l.3,1c.33,1.08.67,2.16,1,3.23,0,.14.1.28.14.42.36,1,.74,2.08,1.12,3.11.12.3.23.6.34.9.42,1.09.85,2.17,1.31,3.24l.18.41c.42,1,.85,1.94,1.3,2.89l.2.44h0a44.54,44.54,0,0,0,18.09-3.31c21.31-8.8,38-35.67,46.32-64.85s8.34-60.67,10.19-87.07c1.33-19,3.63-35.41,2.73-49.83-1.2.58-2.42,1.2-3.65,1.87h0l-1.61.91-.36.21c-.52.29-1,.6-1.55.91l-.4.24-1.59,1-.25.16q-3.53,2.26-7.09,4.92l-.39.29-1.52,1.16-.51.4c-.5.39-1,.78-1.49,1.18l-.48.39c-.52.41-1,.83-1.55,1.26l-.11.09q-2.55,2.11-5.08,4.4l-.65.59c-.43.39-.86.78-1.28,1.18l-.77.71-1.22,1.16-.81.78-1.19,1.16-.86.85-1.51,1.52c-.49.5-1,1-1.46,1.5l-1,1c-.34.36-.69.72-1,1.09l-1,1-1,1.13-.91,1-1.08,1.21-.84,1-1.2,1.39-.69.81c-.62.72-1.23,1.45-1.84,2.18-.14.18-.28.36-.43.53-.47.58-1,1.16-1.42,1.75l-.65.81-1.18,1.49c-.22.29-.45.58-.67.88l-1.14,1.47c-.21.29-.43.58-.65.86-.4.53-.79,1.07-1.18,1.6l-.54.73q-.85,1.17-1.68,2.34c-19,26.87-29.19,55.58-31,85.69-.08,1.27-.14,2.55-.19,3.83l0,1C1605.06,1474.59,1605,1475.84,1605,1477.09Z"/><path class="cls-4" d="M379.2,1195c-1.09-.17-2.19-.32-3.31-.45l-.18,0h0c-14.12,22-23.7,53.39-34.88,83.86-13.44,36.59-29.18,71.79-19,92.63s46.31,27.33,85.22,29.18c8.59.41,17.31.6,25.87.25h0l.93-1.87c16.67-35.2,8.34-102.83-3.24-143.59s-26.41-54.66-47.71-59.29c-1.07-.23-2.15-.43-3.24-.61Z"/><path class="cls-4" d="M801.75,243.69l2.84,1.14,1.23.48,2.42.95,1.58.6,2.16.81,1.83.67,2,.73c.64.24,1.29.46,1.94.69l2,.7,2,.67,2,.68,2,.64,2.14.69,1.91.59,2.26.7,1.83.53,2.41.71,1.7.48,2.61.72,1.6.42L845,258l1.49.37,2.95.73,1.45.33c1,.24,2,.48,3,.7,1.51.34,3,.66,4.56,1,48.79,10,108.08,9.11,147.91-5.72s60.22-43.54,69.49-70.69a100.2,100.2,0,0,0,4.68-19.56h0c-20.36-6.22-49.76-6.13-80.42-2.38-1.5.95-3,1.88-4.53,2.81l-.35.22-.11.06q-2.62,1.6-5.25,3.17l0,0c-1.78,1.05-3.57,2.1-5.36,3.13l-.53.3q-5.31,3-10.69,5.93l-.64.33q-5.34,2.85-10.78,5.5l-.73.36q-5.4,2.63-10.92,5l-.25.11-.57.25q-2.76,1.2-5.56,2.36l-.1.05-.11,0q-2.67,1.1-5.37,2.14l-.33.13-.54.21q-2.79,1.08-5.61,2.1l-.61.22c-1.73.62-3.48,1.22-5.23,1.81l-.89.3q-2.84.95-5.7,1.83l-.93.28q-2.6.8-5.22,1.54l-.87.25q-2.89.81-5.83,1.56l-1.17.29q-2.67.68-5.39,1.3l-.75.18c-2,.45-4,.87-6,1.28l-1.35.27q-2.87.57-5.76,1.09l-.5.09c-2.06.36-4.14.69-6.23,1l-.73.1-.76.12q-3.18.46-6.42.87-3.95.48-8,.87l-1.61.14c-2.17.2-4.36.39-6.57.55l-1.81.12c-2.15.14-4.31.28-6.49.39-.7,0-1.41.06-2.12.09-2.05.1-4.12.19-6.2.25l-.68,0c-17.46,9.32-32.7,18.78-44.37,26.36h0q3.64,1.59,7.49,3.16Z"/><path class="cls-4" d="M126.61,1001.19c0-1.22-.1-2.45-.17-3.68l0-.32q-.24-4-.66-8.06c0-.15,0-.31-.05-.46q-.19-1.77-.42-3.54l-.09-.65q-.53-4-1.27-8.08c0-.21-.08-.42-.12-.63-.2-1.12-.42-2.23-.65-3.35-.07-.33-.14-.65-.2-1-.24-1.13-.5-2.26-.76-3.4,0-.2-.09-.41-.14-.62-.32-1.34-.66-2.68-1-4-.07-.25-.13-.49-.2-.73q-.43-1.62-.9-3.24c-.12-.4-.24-.79-.35-1.19-.3-1-.61-2-.93-3-.11-.35-.21-.7-.33-1-.43-1.32-.87-2.63-1.34-4-.07-.21-.15-.41-.22-.62-.4-1.11-.81-2.22-1.23-3.34l-.49-1.26c-.37-.94-.76-1.89-1.15-2.84-.16-.4-.33-.8-.5-1.21q-.82-2-1.71-3.93c-.59-1.3-1.2-2.59-1.82-3.89l-.59-1.18q-.67-1.38-1.38-2.76l-.66-1.27c-.52-1-1.06-2-1.6-3l-.48-.87c-.7-1.28-1.43-2.55-2.17-3.82l-.48-.81c-.6-1-1.2-2-1.81-3-.23-.38-.47-.75-.71-1.13-.58-.94-1.17-1.88-1.78-2.81l-.63-1q-2.45-3.75-5.06-7.38l-.61-.84c-.68-1-1.38-1.88-2.07-2.82-.23-.3-.45-.6-.68-.89-.79-1-1.59-2.07-2.39-3.09l-.31-.4c-.94-1.19-1.9-2.36-2.86-3.52l-.3-.37c-.84-1-1.68-2-2.52-3l-.67-.76c-.78-.89-1.56-1.77-2.35-2.63l-.57-.63q-2.92-3.19-5.91-6.15l-.65-.64c-.78-.76-1.55-1.51-2.33-2.24l-.44-.43h0a76.94,76.94,0,0,0,2.21,51c9,22.81,29.16,43.74,50.44,70.71,2.06,2.6,4.11,5.26,6.19,8,0-1.3,0-2.6-.09-3.91C126.62,1001.43,126.61,1001.31,126.61,1001.19Z"/><path class="cls-4" d="M219.55,593.67q3.94,0,7.95-.18l.79,0,3.34-.15.72,0c2.68-.15,5.39-.33,8.11-.55l.76-.07q1.67-.13,3.33-.3l.91-.09c1.24-.12,2.49-.25,3.73-.4l.32,0,4.14-.51.69-.09,3.36-.47,1.08-.16,3.25-.51.85-.13,4.09-.71.49-.1c1.17-.21,2.34-.44,3.52-.67l1.18-.24,3-.63,1.15-.25c1.33-.29,2.65-.6,4-.91h0c1.33-.32,2.65-.65,4-1l1.2-.32,2.83-.77,1.3-.36,3.1-.91.86-.26c1.29-.39,2.57-.8,3.85-1.22l1.11-.36c.93-.31,1.87-.63,2.8-1l1.34-.47,2.77-1,1.12-.41c1.25-.48,2.51-1,3.76-1.47l.79-.33,3-1.25,1.25-.55,2.64-1.18,1.16-.53c1.23-.58,2.46-1.16,3.67-1.76C365.87,550,399.22,511.12,427,468q1.29-2,2.57-4c.18-.28.35-.57.53-.86.67-1.05,1.34-2.11,2-3.17l.68-1.09,1.81-3c.25-.41.5-.82.74-1.23.57-.94,1.14-1.88,1.7-2.82l.81-1.35,1.59-2.69.84-1.45,1.5-2.59.87-1.53c.48-.83.95-1.66,1.42-2.49l.89-1.61,1.34-2.4c.3-.56.6-1.12.91-1.68.42-.77.84-1.54,1.25-2.31l.93-1.74c.39-.74.79-1.48,1.17-2.22s.62-1.18.92-1.77l1.12-2.17c.31-.6.61-1.2.91-1.8l1.05-2.09c.3-.62.61-1.23.91-1.85s.65-1.34,1-2l.9-1.87c.3-.65.61-1.3.91-1.94s.59-1.26.87-1.88l.86-1.88c.28-.63.57-1.26.84-1.89.16-.36.33-.72.48-1.07h0c-26,8-52.47,19.06-75.73,36.38-29.12,21.68-53.21,53.18-87.95,83.75-28,24.61-62.81,48.61-80.67,67.91h2.62Z"/><path class="cls-4" d="M1514.05,1223.48c1.46.34,2.91.65,4.35,1l1,.2c1.15.22,2.3.43,3.43.62l1,.16c1.41.23,2.81.44,4.2.62h0a120.76,120.76,0,0,0,15.21-15.65c24.09-29.64,33.35-68.55,32.43-97.27s-12-47.24-22.23-64.83S1534,1014,1511.75,986.2c-20-25-50.47-59-88-66.23h0c-1.27.9-2.53,1.83-3.78,2.77l-.17.13c-1.24.93-2.46,1.88-3.68,2.85l-1.15.93c-.89.72-1.77,1.43-2.64,2.16-.46.38-.91.78-1.37,1.17-.79.67-1.58,1.34-2.35,2l-1.46,1.3c-.74.66-1.47,1.32-2.19,2-.51.46-1,.93-1.5,1.4l-2.08,2-1.5,1.48-2,2-1.5,1.55c-.64.66-1.28,1.33-1.91,2l-1.47,1.59c-.62.68-1.24,1.36-1.85,2.05l-1.44,1.63c-.6.69-1.19,1.39-1.78,2.08s-.94,1.11-1.4,1.67l-1.73,2.13-1.34,1.68c-.57.73-1.13,1.46-1.69,2.2l-1.27,1.66c-.57.77-1.13,1.55-1.68,2.32l-1.16,1.6-1.78,2.6c-.31.46-.63.91-.93,1.37-.88,1.33-1.75,2.67-2.59,4-27.79,44.46-31.49,96.34-1.85,144.52S1463.1,1211.44,1514.05,1223.48Z"/><path class="cls-4" d="M1334.21,131.62c-1.5.24-3,.51-4.35.79h0v0c.21.6.42,1.2.64,1.8l.08.21c.19.51.39,1,.59,1.54l.24.6.48,1.16.29.69c.16.35.31.71.47,1.06l.33.73c.15.34.31.68.47,1s.24.49.35.73l.5,1,.36.71.55,1.07c.12.21.23.43.34.64.23.43.46.85.7,1.27l.23.42c.31.55.63,1.1,1,1.64.1.17.21.34.31.52l.68,1.11.4.63c.21.33.41.65.63,1l.42.65.63.92.45.65.64.9.45.62.68.9.43.57c.25.33.51.65.76,1l.37.47,1.15,1.37c11.58,13.43,25.94,19,46.79,27.09,11.4,4.43,24.73,9.63,37.51,13.54l.23.07,3.63,1.08.22.06c2.45.7,4.88,1.35,7.25,1.92l.15,0c1.13.27,2.25.52,3.36.76l.4.09c1.08.23,2.15.44,3.2.63l.38.07c1.08.19,2.14.37,3.18.52h0c-7.33-20.91-22.41-46.11-41.6-60.13C1386.09,128.15,1355.52,128.15,1334.21,131.62Z"/><path class="cls-4" d="M1699.56,211.42l1.32,1.8,1.08,1.45,1.39,1.86,2.15,2.85,1,1.26,1.56,2,.84,1.08,1.72,2.23.2.26q2.13,2.73,4.33,5.51l0,.07,2.12,2.66.41.51c3,3.81,6.15,7.67,9.33,11.54l.19.24c3.19,3.89,6.44,7.8,9.71,11.7.11.13.22.27.34.4l2.31,2.74.3.36q3.45,4.08,6.9,8.12l.76.88,1.93,2.25,1,1.17,1.83,2.12.83,1,3.2,3.68,1.44,1.64c.47.55,1,1.09,1.42,1.63l1.61,1.83,1.26,1.43q1.35,1.55,2.7,3.06l.72.81c.72.82,1.45,1.63,2.17,2.44l1,1.1,2,2.18.91,1,2.72,3,3.53,3.89,1.17,1.28,2.4,2.63,1.17,1.27,3.2,3.46.54.58,2.79,3c.35.38.71.75,1.06,1.12l2.25,2.36,1,1q1.54,1.6,3,3.14c.11.1.21.21.31.31l2.7,2.74.84.83c.76.77,1.52,1.52,2.27,2.26l.69.68c1,.95,1.93,1.88,2.88,2.78a1.29,1.29,0,0,0,.17.16c.88.84,1.74,1.66,2.6,2.45l.65.61,2.25,2.05.49.44c.9.81,1.8,1.61,2.69,2.37l.12.11c.82.71,1.63,1.39,2.43,2.06l.55.46c.72.59,1.44,1.17,2.15,1.73l.37.3c.84.67,1.67,1.31,2.49,1.93l.16.11c.74.56,1.47,1.09,2.2,1.61.08,0,.16.12.24.18h0c.56-11.84-1.18-25.2-6.23-39.83-10-29.19-33.21-63.47-66.81-82.77-16.6-9.54-35.75-15.41-54.36-19.1h0l.44.61Z"/><path class="cls-4" d="M969.13,1812.74q-1.83-1.48-3.74-3l-1.07-.83-2.83-2.18-1.34-1-2.72-2-1.47-1.07-2.74-2-1.53-1.08c-.94-.67-1.89-1.34-2.86-2l-1.52-1-3-2.07-1.46-1-3.31-2.19-1.29-.85-3.84-2.46-.87-.56c-4.85-3.06-9.86-6.09-15-9.05l-1-.59c-1.35-.77-2.69-1.54-4-2.3l-1.41-.78-3.74-2.06-1.59-.86c-1.21-.65-2.42-1.3-3.65-1.94l-1.65-.86c-1.22-.64-2.44-1.26-3.66-1.89l-1.65-.83-3.78-1.87-1.55-.76c-1.36-.66-2.72-1.3-4.08-1.94l-1.26-.6c-1.66-.77-3.31-1.53-5-2.27l-.39-.18c-3.63-1.62-7.28-3.18-10.92-4.66l-1.29-.51c-1.35-.55-2.7-1.08-4.06-1.61l-1.73-.65c-1.2-.46-2.41-.91-3.61-1.35l-1.93-.7c-1.14-.4-2.27-.8-3.4-1.18l-2-.69c-1.11-.37-2.2-.72-3.3-1.07l-2.05-.65c-1.09-.34-2.18-.66-3.27-1l-2-.59c-1.1-.32-2.21-.62-3.31-.91-.64-.17-1.27-.35-1.91-.51-1.19-.31-2.38-.6-3.56-.88l-1.6-.39c-1.7-.39-3.4-.76-5.08-1.1s-3.18-.61-4.75-.88l-.85-.14c-1.53-.26-3-.49-4.55-.7l-.73-.1c-1.43-.19-2.85-.36-4.25-.52l-.47,0c-1.45-.15-2.89-.28-4.31-.39l-1.08-.08c-1.37-.09-2.73-.18-4.08-.23l-1,0c-1.09,0-2.18-.07-3.25-.08l-1.23,0c-1.21,0-2.42,0-3.61,0l-1.5,0-2.91.11-1.84.11c-.83,0-1.67.11-2.5.18l-1.55.14c-1,.09-2,.19-2.91.31h0c12.5,11.83,29.08,23.24,47.44,33.15,42.43,22.89,94.3,37.72,131.35,42.82,5.69.78,11,1.32,16,1.66h0c-1.07-.89-2.16-1.79-3.28-2.7Z"/><path class="cls-4" d="M1639.61,813.59a88.34,88.34,0,0,0,7.35,5.19c6.92-14.61,11.72-33.8,16.09-51.29,6.49-25.94,12-48.18,4.18-68.55S1638,660,1612.1,654a82.84,82.84,0,0,0-8.77-1.53h0l-.1.1-.54.54c-.34.33-.67.67-1,1l-.52.56c-.35.37-.69.76-1,1.15l-.38.45c-.47.55-.93,1.11-1.37,1.68-15.29,19.91-15.29,53.27-6,83.38S1620.15,798.3,1639.61,813.59Z"/><path class="cls-4" d="M1477.77,1628.66a63.47,63.47,0,0,0,3.2-16.22c-.6-1.42-1.22-2.85-1.84-4.28l-.21-.47c-.61-1.42-1.25-2.84-1.89-4.28-.1-.23-.21-.45-.31-.68-.52-1.16-1-2.32-1.59-3.49-.19-.43-.39-.86-.59-1.29-.63-1.37-1.26-2.74-1.91-4.13-16.68-35.66-38.91-77.35-88-90.32s-125.06,2.78-161.19,40.76c-1.06,1.12-2.1,2.27-3.09,3.43l-.12.13q-1.46,1.7-2.8,3.43l-.19.24c-.88,1.14-1.72,2.29-2.54,3.46l-.23.32c-.8,1.15-1.56,2.31-2.3,3.48-.09.13-.17.26-.25.39-.73,1.16-1.42,2.33-2.09,3.51l-.26.45c-.65,1.17-1.28,2.35-1.88,3.54-.08.17-.17.34-.26.51-.58,1.17-1.14,2.36-1.68,3.56-.08.18-.17.36-.25.55-.53,1.19-1,2.38-1.5,3.58l-.24.59c-.46,1.2-.9,2.4-1.32,3.61l-.21.62c-.41,1.2-.8,2.41-1.16,3.63-.06.21-.13.42-.19.64-.35,1.21-.68,2.42-1,3.64-.06.22-.11.44-.17.66-.3,1.22-.58,2.44-.83,3.67-.05.21-.09.43-.14.65-.25,1.23-.48,2.46-.68,3.69,0,.22-.07.43-.11.65-.2,1.23-.38,2.47-.53,3.71,0,.21-.05.42-.08.63-.15,1.24-.28,2.49-.39,3.73,0,.2,0,.4,0,.59-.1,1.26-.19,2.52-.25,3.78,0,.05,0,.1,0,.15h0a71.85,71.85,0,0,0,4.14,6.2c23.16,31,65.77,32.88,103.75,43.08s71.33,28.71,102.83,25.47S1468.51,1656,1477.77,1628.66Z"/><path class="cls-4" d="M1334.33,608c33.35-9.27,63-38,95.88-57.9q1.93-1.17,3.89-2.3l1.15-.66c1-.59,2-1.16,3-1.73l1-.54,3.76-2.06,1.33-.7,2.58-1.37,1.6-.83,2.57-1.33c1.07-.55,2.13-1.09,3.2-1.62l1.24-.63c15.06-7.57,29.94-14.46,43.19-22.58l.17-.11h0a79.23,79.23,0,0,0-4.61-36.85c-12-31.5-46.33-58.36-84.77-69.47s-81.06-6.5-121.82-6.5c-36.41,0-71.35-3.69-100.18,15.34h0q-.79,2.26-1.55,4.54l-.42,1.32c-.35,1.07-.69,2.13-1,3.2-.18.58-.35,1.16-.52,1.74-.28.93-.55,1.86-.82,2.8-.19.65-.36,1.3-.54,1.95-.24.87-.48,1.74-.7,2.61-.19.69-.36,1.38-.53,2.07s-.42,1.67-.62,2.5-.33,1.43-.5,2.15l-.54,2.43c-.16.73-.31,1.46-.46,2.19l-.48,2.39c-.14.74-.28,1.48-.41,2.21s-.28,1.57-.41,2.36-.25,1.48-.37,2.22-.24,1.56-.35,2.34-.22,1.47-.32,2.21-.2,1.55-.29,2.33-.18,1.46-.26,2.18-.16,1.56-.23,2.34-.14,1.43-.2,2.13-.12,1.59-.18,2.38-.1,1.37-.13,2-.08,1.64-.12,2.46c0,.64-.06,1.28-.08,1.91,0,.91,0,1.81,0,2.7,0,.54,0,1.08,0,1.61,0,1.42,0,2.84.06,4.24,1.39,46.31,26.4,78.74,57.43,100S1301,617.3,1334.33,608Z"/><path class="cls-4" d="M749.52,1471.23c-5.8,9.75-9.6,17.61-14.87,27.43-21.35,39.78-53.56,73.89-103.13,61.73-52.31-12.81-60.42-54.38-57.24-101.6,4.31-64.13,21.66-71.49,70-102.94-61.21,23.14-78.53,53.25-80.55,118.55-1.51,48.78,13.45,85.22,65.43,96.24C695.64,1584.73,733.27,1526.42,749.52,1471.23Z"/><path class="cls-4" d="M1130.54,509.47c-9.33-137.49-.92-217.49,156-220.87,69.89-1.51,227.15-4.85,274.83,52.91,30.21,36.6,52.85,114.24,20.24,155.25C1567.94,513.89,1478.47,589.84,1466,597c-23.91,13.77-40.36,13.77-65.29,25.55-63.23,29.89-40.18,41.85-112,39.27,58.52,16.71,64.68-8.64,115.93-30.4,28.86-12.26,38.82-8.57,67.26-23.79,14.71-7.87,106.78-81.89,122.16-100.39,44.11-53,13.57-159-36.89-198.3-56.08-43.71-241.59-42.63-309.37-33.53C1118.3,292.86,1103.23,399.41,1130.54,509.47Z"/><path class="cls-4" d="M1893.78,403.84c-29.21,25.54-33,32-67.93,10.41-26.56-16.41-53-32.78-72.45-57.66-16.61-21.3-28.12-41-46.6-62.64-20.53-24.08-38.8-45.83-58.7-70.43-28.27-35-28.85-34.3-14.09-72.19-27.85,38.56-10.92,50.55,15.49,86.83,24.48,33.63,50.15,63.08,74.19,97,32.86,46.39,47.74,57.31,98.33,85.46C1857.28,440.26,1869.92,437.2,1893.78,403.84Z"/><path class="cls-4" d="M667.05,1093.08c38.2-12.88,53.69-26.79,47.64-69.43-4.17-29.38-21.07-63.86-38.46-87.92,13.06,32.71,56.89,112.88,12.35,138.2-8.31,4.73-57.89,19.84-69.27,23.06-67.83,19.15-94.24-15.12-104.17-78-6.47-40.95-2.16-49.87,17.41-83.31-29.85,31.3-29.84,58.89-22.28,100.18,8.24,45.06,30,78.82,80.63,78.16C613,1113.79,645.19,1100.46,667.05,1093.08Z"/><path class="cls-4" d="M1838.3,953.51c-12.18-37.38-4.8-87.79,5.35-124.32,18.51-66.57,24.72-84,70.74-136.76,20.44-23.43,26.42-25.8,49.09-44-33.35,13.7-60.86,43.8-83.31,71.39-40.25,49.52-61.87,137.76-55.13,199.83,2.67,24.58,7.16,57.64,38.26,58.41l10.2-.93C1854.59,973.75,1844.77,973.36,1838.3,953.51Z"/><path class="cls-4" d="M1025.2,1238.67c-27.67-5.48-85.57-7.88-111,3.32-37.75,16.62-107.13,94.35-111.56,137-4.06,39.16,27.78,123.82,60.49,147.12,39.49,28.12,131,36.54,176.08,25.66,19.1-4.6,31.61-9.89,49.31-17.87-16.4,3.81-34.38,9.17-50.57,12.1-42.59,7.72-131.24-2.58-167.56-29.94-27.52-20.72-56-101.26-51.86-134.77,4.38-35.14,58-98.49,86.18-118.75,30.25-21.72,69.72-18.41,105.88-15.87,60.22,4.22,68.59,47.2,94.69,96C1091.59,1299.13,1075.24,1248.56,1025.2,1238.67Z"/><path class="cls-4" d="M1757,1274.66c-50.33-18.72-100.16,20.17-133.3,53.29,35.45-23.37,82.44-63,129.29-43.72,38,15.66,29.08,77.46,22.16,108-12.33,54.33-11.22,73.1-14.81,125.61-3.52,51.61-18.43,87-75.31,94.89-50.21,7-92.5-21.9-112.1-68.17l-14.28-39.15c2.95,17.82,3.2,24,9.1,41.08,17.85,51.72,64.62,83.74,118.74,77.93,88.85-9.55,89.07-84.5,92.36-153.64,1.83-38.22,8.29-58.31,13.76-94.32C1797.63,1343.53,1794.57,1288.62,1757,1274.66Z"/><path class="cls-4" d="M1517.94,1781.06l16.72,7.19c42.5,19.81,46.38,59.65,17.72,95.28-16.44,20.45-68.32,50.58-92.86,60.93-39.88,16.82-95.75,16.34-129.83-13.73-35.42-31.24-14.58-64.26-1.87-98.87-36.9,53-32.47,102.24,31.87,125.64,67.78,24.65,118.07-3.76,171.81-42.48,29.14-21,60-62.29,40.82-99.51C1561.11,1793.76,1540.68,1784.92,1517.94,1781.06Z"/><path class="cls-4" d="M1371.48,1788.08l-21.62-8.72c-87.75-32.6-215.75-43.85-210.75-158.14,3-67.24,32.45-104.43,92.42-128.42,106.33-42.54,208-86.29,265,40.07,35.76,79.32,49.83,111.66,20.11,191.35,43.15-70.92,22.81-121.89-7.95-196.65-56-136.11-171.81-100.57-284.75-54.14-73.73,30.31-113,95.25-99.62,174.67,15.65,93,124.92,109.88,201.1,129.67C1353.31,1785,1343.51,1782.67,1371.48,1788.08Z"/><path class="cls-4" d="M991.31,1748c-113.26-72-202.71-107.31-316.54-14.79,56.59-27.85,89.25-55.33,158.3-44.22,44,7.09,132,50.44,169.62,76.76,34.88,24.39,40.12,53.77,58.11,89.35l-2.28-10C1046.34,1799.75,1031.13,1773.28,991.31,1748Z"/><path class="cls-4" d="M1758.83,776.92c3.62-29,13.07-65.48,11.23-93.26-2.39-36.34-12-57-46-69.27-60.52-21.89-85.28-40.17-145.15-3.72,57.81-20.54,59.14-22.79,118.5,2.08,38.34,16.07,56.52,15.39,61.84,63.59,3.43,31.12-9.48,73.76-13.21,107.27-5.19,46.68-17.24,78.81-70.69,83.11s-81.78-19.88-100.68-67.87c-6.08-15.45-10.74-31-16.8-46.68,4.33,23.45,10.6,48,20.84,69.67,19.6,41.38,60.77,59.82,105.38,53.24C1743.38,866.34,1752.46,828,1758.83,776.92Z"/><path class="cls-4" d="M1188.74,751.36c6.32-53.09-51-136.77-89-170.58-24.36-21.67-34.62-24.89-65.21-16.69-62.89,16.9-80.36,19.27-80.43,91.56,14.48-70.12,10.68-66.39,82.59-83.32,27.45-6.47,34.46-4.09,56,16.12,31.94,29.92,122.49,149.81,71.85,190.22-26.75,21.34-74.38,21.46-107.44,25C1097.1,809.41,1182.38,804.81,1188.74,751.36Z"/><path class="cls-4" d="M1708,1175.91c36-117.41-52.26-210.28-123.8-286.77-79.54-85-140.17-62-225.82,6.37,148.18-87.46,169.41-55.25,270,67.63,75.39,92.06,106.1,239.23-20.61,304.62-84,43.33-172.57-18.86-245.07-57.31,41.19,31.69,85.39,62.26,135.85,77.19C1590.26,1314.76,1680.88,1264.39,1708,1175.91Z"/><path class="cls-4" d="M1326.4,197.08c-27-32.62-73.9-67.7-31.4-109.43,26.24-25.76,89.78-35.34,124.91-24.45,35.72,11.08,87.26,51.49,104.25,84.86,6.34,12.46,21.63,54.5,9.73,67.77-7,7.77-23.08,14.65-32.62,19.7,12.61-3.41,26.45-7.06,36.06-16.58,15-14.82,1-59.29-6-74.31-17-36.49-69.62-79.91-107.71-92.69-37.91-12.72-107.37,1-134.72,29.61C1245.68,126.75,1289.44,168.32,1326.4,197.08Z"/><path class="cls-4" d="M800.76,906.06c-22.56,74.2,24.69,159.42,54.72,228.63,26.64,61.38,64.9,60.48,132.59,54.8,77.6-6.51,214.74-33.8,222.31-131.77,5.75-74.32-10.39-92.9-56.55-146.25,37.29,57.49,53.19,73.78,45,145-10.2,89.17-141.83,109.76-212.25,114.11-58.37,3.6-89.54,6.75-112.5-43.51-29.34-64.17-78.37-147.7-59.5-216.95,28-102.79,120.25-89.05,199.88-82.8C928.53,804.36,832.2,802.62,800.76,906.06Z"/><path class="cls-4" d="M53.65,807.29C87.89,832.4,97.23,833,125.42,870.83c36.07,48.4,65.78,110.1,52.47,171.94-6.67,30.93-22.95,41.59-44.42,62,12.84-7.34,22.13-12.74,32.5-23.81,33.25-35.49,28.83-104.37,10.19-146.42C153.81,884.15,108.18,825.38,53.65,807.29Z"/><path class="cls-4" d="M481.41,1297.4l.28,12.62c4,77.7,13.38,145.34-90,157.21-40.83,4.67-103.83,8.7-137.37-16.79-52.51-39.9-36.72-104.6-14.21-155.65,11.21-25.44,22.64-54.38,34.19-78.9,40.12-85.18,50.76-74.75,127.3-60.42-76.06-32-98.56-19.18-136.84,55.87-12.19,23.91-24.7,53.11-36.44,78-24.54,52.06-41.6,114.76,3.43,162.18,38.77,40.82,109.68,35.31,161.42,28,96-13.64,107.08-75.56,93.59-157.53C484.43,1307.94,484.94,1311.2,481.41,1297.4Z"/><path class="cls-4" d="M489.3,883.08c-4.63,51.64-6.43,75.19-59.36,84.23-72.19,12.33-184.87,29.49-208.36-64C203,829.17,241,788.12,281.94,733.05c44.43-59.75,64.53-90.11,141.67-63.57,58.11,20,57.32,24.56,64.7,78.92,4.67-55.92-11-67.19-61.83-86.76-87.34-33.61-113.35,9.1-163.91,74.66-42.76,55.44-76.51,95.57-56,170.87,28.18,103.62,144.26,85.93,225,69.45,56.07-11.44,61.11-37.37,61.83-93.35.19-14.85,0-12.54-1.1-27.43C489.46,876.8,491.17,862.26,489.3,883.08Z"/><path class="cls-4" d="M757.79,763.4c58-10.25,77-55.77,95.56-105.91-25.4,41.67-43.82,86.45-97.45,93.56-85.12,11.29-197.84-42.59-238.23-123.38-29.28-58.57-20.59-82.95,22.8-126,74.48-73.92,98-89.06,196.77-111.2-93.07,1-140.48,37.39-207.67,99.72-50.48,46.82-61.76,80-30.23,146.41C541.07,724.47,667.62,779.35,757.79,763.4Z"/><path class="cls-4" d="M1072.35,282.09c36.51-20.14,97.07-65.15,71.15-113.55-8.59-16-22.52-28.89-36.27-40.42,6.87,8.71,14.64,17.26,21.11,25.91,30.15,40.28,12.37,67.44-24.14,96.18-56.45,44.44-126.6,59.12-196.89,50.58-33.72-4.09-73.63-9.58-106.88-15.57-58.3-10.51-70-21.89-119.86-45.36C747.8,291,812.45,296.28,892.94,309.37,960.63,320.39,1011,315.93,1072.35,282.09Z"/><path class="cls-4" d="M358.51,612.72c71-34.1,104.2-106.81,133.11-176.1,9.69-23.2,66.32-153.85.09-145C481.3,293,479.58,294,469.42,297.2c12.29-1.31,36-7.35,43.88,5.42,24.85,40.26-64,202.76-90.87,241.14-37.58,53.65-91.4,74.9-152.4,91.82-49.43,13.72-63.83,9.72-111.17,11.36C223.77,659.72,300,640.85,358.51,612.72Z"/></g></svg>